999
"DXF R12 Output" (www.mydxf.blogspot.com)
 0 
SECTION
 2 
HEADER
 9 
$ACADVER
 1 
AC1009
 9 
$EXTMIN
 10 
 0 
 20 
 0 
 9 
$EXTMAX
 10 
 8.5 
 20 
 11 
 0 
ENDSEC
 0 
SECTION
 2 
ENTITIES
0
LINE
8
Layer 1
10
273.579339
20
324.347052
11
266.496924
21
323.587240
0
LINE
8
Layer 1
10
266.496924
20
323.587240
11
260.636355
21
322.746631
0
LINE
8
Layer 1
10
260.636355
20
322.746631
11
255.250052
21
321.699845
0
LINE
8
Layer 1
10
255.250052
20
321.699845
11
249.590435
21
320.321502
0
LINE
8
Layer 1
10
249.590435
20
320.321502
11
241.110225
21
317.828994
0
LINE
8
Layer 1
10
241.110225
20
317.828994
11
232.833480
21
314.864732
0
LINE
8
Layer 1
10
232.833480
20
314.864732
11
228.342622
21
312.916202
0
LINE
8
Layer 1
10
228.342622
20
312.916202
11
222.776529
21
310.247442
0
LINE
8
Layer 1
10
222.776529
20
310.247442
11
217.236432
21
307.404916
0
LINE
8
Layer 1
10
217.236432
20
307.404916
11
212.823559
21
304.935090
0
LINE
8
Layer 1
10
212.823559
20
304.935090
11
206.931577
21
301.097091
0
LINE
8
Layer 1
10
206.931577
20
301.097091
11
200.910907
21
296.767000
0
LINE
8
Layer 1
10
200.910907
20
296.767000
11
196.275002
21
293.082956
0
LINE
8
Layer 1
10
196.275002
20
293.082956
11
194.949289
21
291.838870
0
LINE
8
Layer 1
10
194.949289
20
291.838870
11
194.537311
21
291.183098
0
LINE
8
Layer 1
10
194.537311
20
291.183098
11
194.059438
21
290.470565
0
LINE
8
Layer 1
10
194.059438
20
290.470565
11
192.680310
21
288.930688
0
LINE
8
Layer 1
10
192.680310
20
288.930688
11
188.380277
21
284.523179
0
LINE
8
Layer 1
10
188.380277
20
284.523179
11
183.961181
21
280.269128
0
LINE
8
Layer 1
10
183.961181
20
280.269128
11
182.433225
21
278.921074
0
LINE
8
Layer 1
10
182.433225
20
278.921074
11
181.746992
21
278.477093
0
LINE
8
Layer 1
10
181.746992
20
278.477093
11
180.901857
21
277.806015
0
LINE
8
Layer 1
10
180.901857
20
277.806015
11
179.021077
21
275.686046
0
LINE
8
Layer 1
10
179.021077
20
275.686046
11
173.143442
21
268.275106
0
LINE
8
Layer 1
10
173.143442
20
268.275106
11
170.781178
21
265.039681
0
LINE
8
Layer 1
10
170.781178
20
265.039681
11
168.509987
21
261.672252
0
LINE
8
Layer 1
10
168.509987
20
261.672252
11
164.253012
21
254.572067
0
LINE
8
Layer 1
10
164.253012
20
254.572067
11
160.396907
21
247.035924
0
LINE
8
Layer 1
10
160.396907
20
247.035924
11
156.966058
21
239.125192
0
LINE
8
Layer 1
10
156.966058
20
239.125192
11
153.984851
21
230.901243
0
LINE
8
Layer 1
10
153.984851
20
230.901243
11
151.477675
21
222.425448
0
LINE
8
Layer 1
10
151.477675
20
222.425448
11
149.468917
21
213.759177
0
LINE
8
Layer 1
10
149.468917
20
213.759177
11
147.982963
21
204.963802
0
LINE
8
Layer 1
10
147.982963
20
204.963802
11
147.495782
21
199.052191
0
LINE
8
Layer 1
10
147.495782
20
199.052191
11
147.218449
21
191.004465
0
LINE
8
Layer 1
10
147.218449
20
191.004465
11
147.186583
21
182.704458
0
LINE
8
Layer 1
10
147.186583
20
182.704458
11
147.435804
21
176.036006
0
LINE
8
Layer 1
10
147.435804
20
176.036006
11
148.249415
21
168.587661
0
LINE
8
Layer 1
10
148.249415
20
168.587661
11
149.574036
21
160.900860
0
LINE
8
Layer 1
10
149.574036
20
160.900860
11
151.433975
21
152.855416
0
LINE
8
Layer 1
10
151.433975
20
152.855416
11
153.853541
21
144.331142
0
LINE
8
Layer 1
10
153.853541
20
144.331142
11
155.022295
21
140.169155
0
LINE
8
Layer 1
10
155.022295
20
140.169155
11
155.338031
21
138.273591
0
LINE
8
Layer 1
10
155.338031
20
138.273591
11
152.851828
21
137.648556
0
LINE
8
Layer 1
10
152.851828
20
137.648556
11
147.284815
21
136.540392
0
LINE
8
Layer 1
10
147.284815
20
136.540392
11
139.020312
21
134.886266
0
LINE
8
Layer 1
10
139.020312
20
134.886266
11
133.077960
21
133.329804
0
LINE
8
Layer 1
10
133.077960
20
133.329804
11
130.536614
21
132.449136
0
LINE
8
Layer 1
10
130.536614
20
132.449136
11
128.046635
21
131.426010
0
LINE
8
Layer 1
10
128.046635
20
131.426010
11
122.515213
21
128.729887
0
LINE
8
Layer 1
10
122.515213
20
128.729887
11
118.743895
21
126.672613
0
LINE
8
Layer 1
10
118.743895
20
126.672613
11
115.124514
21
124.495184
0
LINE
8
Layer 1
10
115.124514
20
124.495184
11
111.735585
21
122.247178
0
LINE
8
Layer 1
10
111.735585
20
122.247178
11
108.655624
21
119.978171
0
LINE
8
Layer 1
10
108.655624
20
119.978171
11
107.009380
21
118.808298
0
LINE
8
Layer 1
10
107.009380
20
118.808298
11
106.549736
21
118.664433
0
LINE
8
Layer 1
10
106.549736
20
118.664433
11
106.316133
21
118.864936
0
LINE
8
Layer 1
10
106.316133
20
118.864936
11
106.296363
21
119.447546
0
LINE
8
Layer 1
10
106.296363
20
119.447546
11
106.478218
21
120.450006
0
LINE
8
Layer 1
10
106.478218
20
120.450006
11
107.397970
21
123.865431
0
LINE
8
Layer 1
10
107.397970
20
123.865431
11
109.562616
21
132.402659
0
LINE
8
Layer 1
10
109.562616
20
132.402659
11
111.132478
21
140.934595
0
LINE
8
Layer 1
10
111.132478
20
140.934595
11
111.747800
21
146.682600
0
LINE
8
Layer 1
10
111.747800
20
146.682600
11
112.085508
21
153.462050
0
LINE
8
Layer 1
10
112.085508
20
153.462050
11
112.119209
21
160.304935
0
LINE
8
Layer 1
10
112.119209
20
160.304935
11
111.822512
21
166.243241
0
LINE
8
Layer 1
10
111.822512
20
166.243241
11
111.421756
21
172.123698
0
LINE
8
Layer 1
10
111.421756
20
172.123698
11
111.867712
21
173.251750
0
LINE
8
Layer 1
10
111.867712
20
173.251750
11
112.858974
21
174.769533
0
LINE
8
Layer 1
10
112.858974
20
174.769533
11
114.220300
21
176.970427
0
LINE
8
Layer 1
10
114.220300
20
176.970427
11
115.555962
21
179.740175
0
LINE
8
Layer 1
10
115.555962
20
179.740175
11
116.352052
21
181.977664
0
LINE
8
Layer 1
10
116.352052
20
181.977664
11
116.872529
21
184.210423
0
LINE
8
Layer 1
10
116.872529
20
184.210423
11
117.115260
21
186.466566
0
LINE
8
Layer 1
10
117.115260
20
186.466566
11
117.078111
21
188.774202
0
LINE
8
Layer 1
10
117.078111
20
188.774202
11
116.758948
21
191.161445
0
LINE
8
Layer 1
10
116.758948
20
191.161445
11
116.155640
21
193.656407
0
LINE
8
Layer 1
10
116.155640
20
193.656407
11
115.266053
21
196.287200
0
LINE
8
Layer 1
10
115.266053
20
196.287200
11
114.088052
21
199.081934
0
LINE
8
Layer 1
10
114.088052
20
199.081934
11
112.934606
21
201.793348
0
LINE
8
Layer 1
10
112.934606
20
201.793348
11
112.352958
21
203.776395
0
LINE
8
Layer 1
10
112.352958
20
203.776395
11
112.284403
21
205.352315
0
LINE
8
Layer 1
10
112.284403
20
205.352315
11
112.670238
21
206.842345
0
LINE
8
Layer 1
10
112.670238
20
206.842345
11
113.070194
21
207.726704
0
LINE
8
Layer 1
10
113.070194
20
207.726704
11
113.657443
21
208.355939
0
LINE
8
Layer 1
10
113.657443
20
208.355939
11
114.766384
21
208.976442
0
LINE
8
Layer 1
10
114.766384
20
208.976442
11
116.731418
21
209.834608
0
LINE
8
Layer 1
10
116.731418
20
209.834608
11
120.408572
21
211.288406
0
LINE
8
Layer 1
10
120.408572
20
211.288406
11
121.958916
21
211.741941
0
LINE
8
Layer 1
10
121.958916
20
211.741941
11
123.556393
21
212.047408
0
LINE
8
Layer 1
10
123.556393
20
212.047408
11
127.610612
21
212.316666
0
LINE
8
Layer 1
10
127.610612
20
212.316666
11
134.006957
21
212.301232
0
LINE
8
Layer 1
10
134.006957
20
212.301232
11
143.507268
21
212.195751
0
LINE
8
Layer 1
10
143.507268
20
212.195751
11
145.043264
21
213.260788
0
LINE
8
Layer 1
10
145.043264
20
213.260788
11
146.428628
21
214.459125
0
LINE
8
Layer 1
10
146.428628
20
214.459125
11
147.336717
21
215.860629
0
LINE
8
Layer 1
10
147.336717
20
215.860629
11
147.823920
21
217.592135
0
LINE
8
Layer 1
10
147.823920
20
217.592135
11
147.946627
21
219.780478
0
LINE
8
Layer 1
10
147.946627
20
219.780478
11
147.777115
21
221.885422
0
LINE
8
Layer 1
10
147.777115
20
221.885422
11
147.333350
21
223.822520
0
LINE
8
Layer 1
10
147.333350
20
223.822520
11
146.603743
21
225.607351
0
LINE
8
Layer 1
10
146.603743
20
225.607351
11
145.576708
21
227.255491
0
LINE
8
Layer 1
10
145.576708
20
227.255491
11
144.240656
21
228.782518
0
LINE
8
Layer 1
10
144.240656
20
228.782518
11
142.583999
21
230.204010
0
LINE
8
Layer 1
10
142.583999
20
230.204010
11
140.595148
21
231.535543
0
LINE
8
Layer 1
10
140.595148
20
231.535543
11
138.262518
21
232.792695
0
LINE
8
Layer 1
10
138.262518
20
232.792695
11
134.298213
21
234.438332
0
LINE
8
Layer 1
10
134.298213
20
234.438332
11
132.390234
21
234.998682
0
LINE
8
Layer 1
10
132.390234
20
234.998682
11
130.509295
21
235.387685
0
LINE
8
Layer 1
10
130.509295
20
235.387685
11
128.638593
21
235.608066
0
LINE
8
Layer 1
10
128.638593
20
235.608066
11
126.761321
21
235.662549
0
LINE
8
Layer 1
10
126.761321
20
235.662549
11
124.860675
21
235.553858
0
LINE
8
Layer 1
10
124.860675
20
235.553858
11
122.919850
21
235.284718
0
LINE
8
Layer 1
10
122.919850
20
235.284718
11
120.523203
21
234.767408
0
LINE
8
Layer 1
10
120.523203
20
234.767408
11
118.072018
21
233.966696
0
LINE
8
Layer 1
10
118.072018
20
233.966696
11
114.909965
21
232.633046
0
LINE
8
Layer 1
10
114.909965
20
232.633046
11
110.380708
21
230.516924
0
LINE
8
Layer 1
10
110.380708
20
230.516924
11
105.047074
21
228.059952
0
LINE
8
Layer 1
10
105.047074
20
228.059952
11
101.065297
21
226.461520
0
LINE
8
Layer 1
10
101.065297
20
226.461520
11
97.958563
21
225.553056
0
LINE
8
Layer 1
10
97.958563
20
225.553056
11
95.250060
21
225.165987
0
LINE
8
Layer 1
10
95.250060
20
225.165987
11
92.864323
21
225.191147
0
LINE
8
Layer 1
10
92.864323
20
225.191147
11
90.494535
21
225.582706
0
LINE
8
Layer 1
10
90.494535
20
225.582706
11
88.168553
21
226.325036
0
LINE
8
Layer 1
10
88.168553
20
226.325036
11
85.914231
21
227.402511
0
LINE
8
Layer 1
10
85.914231
20
227.402511
11
83.759426
21
228.799504
0
LINE
8
Layer 1
10
83.759426
20
228.799504
11
81.731993
21
230.500387
0
LINE
8
Layer 1
10
81.731993
20
230.500387
11
79.859788
21
232.489534
0
LINE
8
Layer 1
10
79.859788
20
232.489534
11
78.170666
21
234.751318
0
LINE
8
Layer 1
10
78.170666
20
234.751318
11
76.546167
21
237.658958
0
LINE
8
Layer 1
10
76.546167
20
237.658958
11
74.575858
21
241.734206
0
LINE
8
Layer 1
10
74.575858
20
241.734206
11
72.706824
21
245.755754
0
LINE
8
Layer 1
10
72.706824
20
245.755754
11
71.162599
21
248.721415
0
LINE
8
Layer 1
10
71.162599
20
248.721415
11
69.586690
21
251.259906
0
LINE
8
Layer 1
10
69.586690
20
251.259906
11
67.622604
21
253.999944
0
LINE
8
Layer 1
10
67.622604
20
253.999944
11
65.645102
21
256.515206
0
LINE
8
Layer 1
10
65.645102
20
256.515206
11
63.534816
21
258.954391
0
LINE
8
Layer 1
10
63.534816
20
258.954391
11
59.109850
21
263.425908
0
LINE
8
Layer 1
10
59.109850
20
263.425908
11
56.892148
21
265.368925
0
LINE
8
Layer 1
10
56.892148
20
265.368925
11
54.735618
21
267.057239
0
LINE
8
Layer 1
10
54.735618
20
267.057239
11
52.688750
21
268.446193
0
LINE
8
Layer 1
10
52.688750
20
268.446193
11
50.800032
21
269.491132
0
LINE
8
Layer 1
10
50.800032
20
269.491132
11
49.232446
21
270.201621
0
LINE
8
Layer 1
10
49.232446
20
270.201621
11
47.981468
21
270.579760
0
LINE
8
Layer 1
10
47.981468
20
270.579760
11
46.508173
21
270.730027
0
LINE
8
Layer 1
10
46.508173
20
270.730027
11
44.273639
21
270.756899
0
LINE
8
Layer 1
10
44.273639
20
270.756899
11
40.947957
21
270.627959
0
LINE
8
Layer 1
10
40.947957
20
270.627959
11
39.977117
21
270.433942
0
LINE
8
Layer 1
10
39.977117
20
270.433942
11
39.234911
21
270.124368
0
LINE
8
Layer 1
10
39.234911
20
270.124368
11
38.468104
21
269.595422
0
LINE
8
Layer 1
10
38.468104
20
269.595422
11
38.250307
21
269.211731
0
LINE
8
Layer 1
10
38.250307
20
269.211731
11
37.968162
21
268.587783
0
LINE
8
Layer 1
10
37.968162
20
268.587783
11
37.065238
21
267.616072
0
LINE
8
Layer 1
10
37.065238
20
267.616072
11
36.014808
21
266.743515
0
LINE
8
Layer 1
10
36.014808
20
266.743515
11
35.290147
21
266.417024
0
LINE
8
Layer 1
10
35.290147
20
266.417024
11
34.844412
21
266.129554
0
LINE
8
Layer 1
10
34.844412
20
266.129554
11
34.403969
21
265.288840
0
LINE
8
Layer 1
10
34.403969
20
265.288840
11
33.886311
21
264.316187
0
LINE
8
Layer 1
10
33.886311
20
264.316187
11
33.559964
21
264.149064
0
LINE
8
Layer 1
10
33.559964
20
264.149064
11
33.123385
21
264.135961
0
LINE
8
Layer 1
10
33.123385
20
264.135961
11
30.480328
21
264.299926
0
LINE
8
Layer 1
10
30.480328
20
264.299926
11
28.169059
21
264.245940
0
LINE
8
Layer 1
10
28.169059
20
264.245940
11
26.183624
21
263.973540
0
LINE
8
Layer 1
10
26.183624
20
263.973540
11
24.518071
21
263.482264
0
LINE
8
Layer 1
10
24.518071
20
263.482264
11
23.046369
21
262.783763
0
LINE
8
Layer 1
10
23.046369
20
262.783763
11
22.480072
21
262.288463
0
LINE
8
Layer 1
10
22.480072
20
262.288463
11
21.860219
21
261.315435
0
LINE
8
Layer 1
10
21.860219
20
261.315435
11
20.342767
21
259.712831
0
LINE
8
Layer 1
10
20.342767
20
259.712831
11
18.712337
21
258.245693
0
LINE
8
Layer 1
10
18.712337
20
258.245693
11
18.099951
21
257.802001
0
LINE
8
Layer 1
10
18.099951
20
257.802001
11
17.753553
21
257.679066
0
LINE
8
Layer 1
10
17.753553
20
257.679066
11
17.461526
21
257.631514
0
LINE
8
Layer 1
10
17.461526
20
257.631514
11
17.166040
21
257.299780
0
LINE
8
Layer 1
10
17.166040
20
257.299780
11
16.617652
21
255.965314
0
LINE
8
Layer 1
10
16.617652
20
255.965314
11
16.214322
21
254.038777
0
LINE
8
Layer 1
10
16.214322
20
254.038777
11
16.061982
21
251.883276
0
LINE
8
Layer 1
10
16.061982
20
251.883276
11
16.168676
21
249.983418
0
LINE
8
Layer 1
10
16.168676
20
249.983418
11
16.548551
21
248.448585
0
LINE
8
Layer 1
10
16.548551
20
248.448585
11
17.316703
21
246.977451
0
LINE
8
Layer 1
10
17.316703
20
246.977451
11
18.588226
21
245.268688
0
LINE
8
Layer 1
10
18.588226
20
245.268688
11
19.691010
21
243.751743
0
LINE
8
Layer 1
10
19.691010
20
243.751743
11
16.745446
21
242.806474
0
LINE
8
Layer 1
10
16.745446
20
242.806474
11
15.305092
21
242.195595
0
LINE
8
Layer 1
10
15.305092
20
242.195595
11
14.714018
21
241.814639
0
LINE
8
Layer 1
10
14.714018
20
241.814639
11
14.374546
21
241.147106
0
LINE
8
Layer 1
10
14.374546
20
241.147106
11
13.497904
21
240.165578
0
LINE
8
Layer 1
10
13.497904
20
240.165578
11
12.533287
21
239.316607
0
LINE
8
Layer 1
10
12.533287
20
239.316607
11
11.929894
21
239.046743
0
LINE
8
Layer 1
10
11.929894
20
239.046743
11
11.702513
21
239.037592
0
LINE
8
Layer 1
10
11.702513
20
239.037592
11
11.460556
21
238.774437
0
LINE
8
Layer 1
10
11.460556
20
238.774437
11
10.989564
21
237.668924
0
LINE
8
Layer 1
10
10.989564
20
237.668924
11
10.630226
21
236.095827
0
LINE
8
Layer 1
10
10.630226
20
236.095827
11
10.495851
21
234.420765
0
LINE
8
Layer 1
10
10.495851
20
234.420765
11
10.672091
21
232.691172
0
LINE
8
Layer 1
10
10.672091
20
232.691172
11
11.151974
21
230.941933
0
LINE
8
Layer 1
10
11.151974
20
230.941933
11
11.913043
21
229.235689
0
LINE
8
Layer 1
10
11.913043
20
229.235689
11
12.932841
21
227.635080
0
LINE
8
Layer 1
10
12.932841
20
227.635080
11
14.081426
21
226.437630
0
LINE
8
Layer 1
10
14.081426
20
226.437630
11
16.270783
21
224.646257
0
LINE
8
Layer 1
10
16.270783
20
224.646257
11
25.047238
21
218.298810
0
LINE
8
Layer 1
10
25.047238
20
218.298810
11
29.234687
21
215.305522
0
LINE
8
Layer 1
10
29.234687
20
215.305522
11
32.595425
21
212.729284
0
LINE
8
Layer 1
10
32.595425
20
212.729284
11
35.339509
21
210.321122
0
LINE
8
Layer 1
10
35.339509
20
210.321122
11
37.676999
21
207.832064
0
LINE
8
Layer 1
10
37.676999
20
207.832064
11
39.817953
21
205.013136
0
LINE
8
Layer 1
10
39.817953
20
205.013136
11
41.972430
21
201.615366
0
LINE
8
Layer 1
10
41.972430
20
201.615366
11
44.350487
21
197.389780
0
LINE
8
Layer 1
10
44.350487
20
197.389780
11
47.162185
21
192.087405
0
LINE
8
Layer 1
10
47.162185
20
192.087405
11
49.902658
21
186.937386
0
LINE
8
Layer 1
10
49.902658
20
186.937386
11
52.002873
21
183.260635
0
LINE
8
Layer 1
10
52.002873
20
183.260635
11
53.874288
21
180.377502
0
LINE
8
Layer 1
10
53.874288
20
180.377502
11
55.928366
21
177.608338
0
LINE
8
Layer 1
10
55.928366
20
177.608338
11
57.872453
21
175.274704
0
LINE
8
Layer 1
10
57.872453
20
175.274704
11
59.915656
21
173.152895
0
LINE
8
Layer 1
10
59.915656
20
173.152895
11
62.061608
21
171.240387
0
LINE
8
Layer 1
10
62.061608
20
171.240387
11
64.313943
21
169.534660
0
LINE
8
Layer 1
10
64.313943
20
169.534660
11
66.676295
21
168.033192
0
LINE
8
Layer 1
10
66.676295
20
168.033192
11
69.152299
21
166.733460
0
LINE
8
Layer 1
10
69.152299
20
166.733460
11
71.745587
21
165.632942
0
LINE
8
Layer 1
10
71.745587
20
165.632942
11
74.459794
21
164.729118
0
LINE
8
Layer 1
10
74.459794
20
164.729118
11
77.999927
21
164.044150
0
LINE
8
Layer 1
10
77.999927
20
164.044150
11
82.230656
21
163.743060
0
LINE
8
Layer 1
10
82.230656
20
163.743060
11
86.578926
21
163.839572
0
LINE
8
Layer 1
10
86.578926
20
163.839572
11
90.471682
21
164.347413
0
LINE
8
Layer 1
10
90.471682
20
164.347413
11
92.999380
21
164.812374
0
LINE
8
Layer 1
10
92.999380
20
164.812374
11
94.145159
21
164.911152
0
LINE
8
Layer 1
10
94.145159
20
164.911152
11
94.147772
21
162.918612
0
LINE
8
Layer 1
10
94.147772
20
162.918612
11
93.854647
21
158.485786
0
LINE
8
Layer 1
10
93.854647
20
158.485786
11
92.921725
21
149.224878
0
LINE
8
Layer 1
10
92.921725
20
149.224878
11
92.121448
21
144.913749
0
LINE
8
Layer 1
10
92.121448
20
144.913749
11
90.858679
21
139.663315
0
LINE
8
Layer 1
10
90.858679
20
139.663315
11
89.149823
21
133.536251
0
LINE
8
Layer 1
10
89.149823
20
133.536251
11
87.011283
21
126.595228
0
LINE
8
Layer 1
10
87.011283
20
126.595228
11
84.466160
21
118.412029
0
LINE
8
Layer 1
10
84.466160
20
118.412029
11
83.010560
21
112.844338
0
LINE
8
Layer 1
10
83.010560
20
112.844338
11
82.351818
21
108.523166
0
LINE
8
Layer 1
10
82.351818
20
108.523166
11
82.197274
21
104.079525
0
LINE
8
Layer 1
10
82.197274
20
104.079525
11
82.276642
21
101.497963
0
LINE
8
Layer 1
10
82.276642
20
101.497963
11
82.514918
21
99.157715
0
LINE
8
Layer 1
10
82.514918
20
99.157715
11
82.912356
21
97.058063
0
LINE
8
Layer 1
10
82.912356
20
97.058063
11
83.469215
21
95.198294
0
LINE
8
Layer 1
10
83.469215
20
95.198294
11
84.185750
21
93.577692
0
LINE
8
Layer 1
10
84.185750
20
93.577692
11
85.062217
21
92.195542
0
LINE
8
Layer 1
10
85.062217
20
92.195542
11
86.098873
21
91.051128
0
LINE
8
Layer 1
10
86.098873
20
91.051128
11
87.295974
21
90.143735
0
LINE
8
Layer 1
10
87.295974
20
90.143735
11
88.271532
21
89.593760
0
LINE
8
Layer 1
10
88.271532
20
89.593760
11
89.130905
21
89.270830
0
LINE
8
Layer 1
10
89.130905
20
89.270830
11
90.084668
21
89.119946
0
LINE
8
Layer 1
10
90.084668
20
89.119946
11
91.343396
21
89.086107
0
LINE
8
Layer 1
10
91.343396
20
89.086107
11
93.070520
21
89.271806
0
LINE
8
Layer 1
10
93.070520
20
89.271806
11
96.166665
21
90.304205
0
LINE
8
Layer 1
10
96.166665
20
90.304205
11
114.087347
21
97.843468
0
LINE
8
Layer 1
10
114.087347
20
97.843468
11
130.762904
21
104.909479
0
LINE
8
Layer 1
10
130.762904
20
104.909479
11
141.856576
21
109.353203
0
LINE
8
Layer 1
10
141.856576
20
109.353203
11
149.729671
21
112.065492
0
LINE
8
Layer 1
10
149.729671
20
112.065492
11
156.743499
21
113.937200
0
LINE
8
Layer 1
10
156.743499
20
113.937200
11
163.450911
21
115.303642
0
LINE
8
Layer 1
10
163.450911
20
115.303642
11
165.916724
21
115.669015
0
LINE
8
Layer 1
10
165.916724
20
115.669015
11
166.976177
21
115.683451
0
LINE
8
Layer 1
10
166.976177
20
115.683451
11
170.211857
21
110.948465
0
LINE
8
Layer 1
10
170.211857
20
110.948465
11
173.983338
21
105.628748
0
LINE
8
Layer 1
10
173.983338
20
105.628748
11
177.847142
21
100.635188
0
LINE
8
Layer 1
10
177.847142
20
100.635188
11
181.845387
21
95.924814
0
LINE
8
Layer 1
10
181.845387
20
95.924814
11
186.020192
21
91.454658
0
LINE
8
Layer 1
10
186.020192
20
91.454658
11
190.413676
21
87.181749
0
LINE
8
Layer 1
10
190.413676
20
87.181749
11
195.067956
21
83.063117
0
LINE
8
Layer 1
10
195.067956
20
83.063117
11
200.025151
21
79.055792
0
LINE
8
Layer 1
10
200.025151
20
79.055792
11
205.327379
21
75.116804
0
LINE
8
Layer 1
10
205.327379
20
75.116804
11
212.078912
21
70.618245
0
LINE
8
Layer 1
10
212.078912
20
70.618245
11
219.142656
21
66.535942
0
LINE
8
Layer 1
10
219.142656
20
66.535942
11
226.493946
21
62.879453
0
LINE
8
Layer 1
10
226.493946
20
62.879453
11
234.108111
21
59.658336
0
LINE
8
Layer 1
10
234.108111
20
59.658336
11
241.960484
21
56.882150
0
LINE
8
Layer 1
10
241.960484
20
56.882150
11
250.026397
21
54.560452
0
LINE
8
Layer 1
10
250.026397
20
54.560452
11
258.281181
21
52.702800
0
LINE
8
Layer 1
10
258.281181
20
52.702800
11
266.700168
21
51.318752
0
LINE
8
Layer 1
10
266.700168
20
51.318752
11
272.444717
21
50.830717
0
LINE
8
Layer 1
10
272.444717
20
50.830717
11
279.964092
21
50.557722
0
LINE
8
Layer 1
10
279.964092
20
50.557722
11
287.728206
21
50.529864
0
LINE
8
Layer 1
10
287.728206
20
50.529864
11
294.206974
21
50.777238
0
LINE
8
Layer 1
10
294.206974
20
50.777238
11
299.566504
21
51.286247
0
LINE
8
Layer 1
10
299.566504
20
51.286247
11
305.119677
21
52.028057
0
LINE
8
Layer 1
10
305.119677
20
52.028057
11
310.788273
21
52.990860
0
LINE
8
Layer 1
10
310.788273
20
52.990860
11
316.494077
21
54.162849
0
LINE
8
Layer 1
10
316.494077
20
54.162849
11
320.850963
21
55.140826
0
LINE
8
Layer 1
10
320.850963
20
55.140826
11
322.827589
21
55.770546
0
LINE
8
Layer 1
10
322.827589
20
55.770546
11
323.151735
21
56.087163
0
LINE
8
Layer 1
10
323.151735
20
56.087163
11
323.154934
21
56.475540
0
LINE
8
Layer 1
10
323.154934
20
56.475540
11
322.563975
21
57.679340
0
LINE
8
Layer 1
10
322.563975
20
57.679340
11
321.467311
21
59.639881
0
LINE
8
Layer 1
10
321.467311
20
59.639881
11
320.185508
21
61.573761
0
LINE
8
Layer 1
10
320.185508
20
61.573761
11
318.755877
21
63.441057
0
LINE
8
Layer 1
10
318.755877
20
63.441057
11
317.215729
21
65.201846
0
LINE
8
Layer 1
10
317.215729
20
65.201846
11
315.602374
21
66.816204
0
LINE
8
Layer 1
10
315.602374
20
66.816204
11
313.953122
21
68.244209
0
LINE
8
Layer 1
10
313.953122
20
68.244209
11
312.305284
21
69.445936
0
LINE
8
Layer 1
10
312.305284
20
69.445936
11
310.696171
21
70.381464
0
LINE
8
Layer 1
10
310.696171
20
70.381464
11
308.849483
21
71.197434
0
LINE
8
Layer 1
10
308.849483
20
71.197434
11
307.109521
21
71.552996
0
LINE
8
Layer 1
10
307.109521
20
71.552996
11
304.803417
21
71.498123
0
LINE
8
Layer 1
10
304.803417
20
71.498123
11
301.258301
21
71.082787
0
LINE
8
Layer 1
10
301.258301
20
71.082787
11
295.670066
21
70.539900
0
LINE
8
Layer 1
10
295.670066
20
70.539900
11
288.738739
21
70.139326
0
LINE
8
Layer 1
10
288.738739
20
70.139326
11
281.632522
21
69.931700
0
LINE
8
Layer 1
10
281.632522
20
69.931700
11
275.519618
21
69.967656
0
LINE
8
Layer 1
10
275.519618
20
69.967656
11
271.554024
21
70.168166
0
LINE
8
Layer 1
10
271.554024
20
70.168166
11
268.619413
21
70.498587
0
LINE
8
Layer 1
10
268.619413
20
70.498587
11
266.387469
21
71.012628
0
LINE
8
Layer 1
10
266.387469
20
71.012628
11
264.529878
21
71.764001
0
LINE
8
Layer 1
10
264.529878
20
71.764001
11
263.307160
21
72.170429
0
LINE
8
Layer 1
10
263.307160
20
72.170429
11
261.496869
21
72.587341
0
LINE
8
Layer 1
10
261.496869
20
72.587341
11
259.725207
21
72.889093
0
LINE
8
Layer 1
10
259.725207
20
72.889093
11
258.618377
21
72.950041
0
LINE
8
Layer 1
10
258.618377
20
72.950041
11
257.880718
21
73.113730
0
LINE
8
Layer 1
10
257.880718
20
73.113730
11
255.436804
21
73.751156
0
LINE
8
Layer 1
10
255.436804
20
73.751156
11
253.724993
21
73.925825
0
LINE
8
Layer 1
10
253.724993
20
73.925825
11
253.453707
21
73.906510
0
LINE
8
Layer 1
10
253.453707
20
73.906510
11
253.067062
21
74.125850
0
LINE
8
Layer 1
10
253.067062
20
74.125850
11
252.582389
21
74.341662
0
LINE
8
Layer 1
10
252.582389
20
74.341662
11
252.075756
21
74.314586
0
LINE
8
Layer 1
10
252.075756
20
74.314586
11
251.641089
21
74.279000
0
LINE
8
Layer 1
10
251.641089
20
74.279000
11
251.329983
21
74.475453
0
LINE
8
Layer 1
10
251.329983
20
74.475453
11
251.030651
21
74.676228
0
LINE
8
Layer 1
10
251.030651
20
74.676228
11
250.624427
21
74.651842
0
LINE
8
Layer 1
10
250.624427
20
74.651842
11
250.218203
21
74.627192
0
LINE
8
Layer 1
10
250.218203
20
74.627192
11
249.918871
21
74.828231
0
LINE
8
Layer 1
10
249.918871
20
74.828231
11
249.622802
21
75.030329
0
LINE
8
Layer 1
10
249.622802
20
75.030329
11
249.224604
21
75.008853
0
LINE
8
Layer 1
10
249.224604
20
75.008853
11
248.859832
21
74.977412
0
LINE
8
Layer 1
10
248.859832
20
74.977412
11
248.643226
21
75.155256
0
LINE
8
Layer 1
10
248.643226
20
75.155256
11
248.253891
21
75.425881
0
LINE
8
Layer 1
10
248.253891
20
75.425881
11
247.473767
21
75.617396
0
LINE
8
Layer 1
10
247.473767
20
75.617396
11
245.415660
21
76.155029
0
LINE
8
Layer 1
10
245.415660
20
76.155029
11
244.623409
21
76.386187
0
LINE
8
Layer 1
10
244.623409
20
76.386187
11
244.122729
21
76.376574
0
LINE
8
Layer 1
10
244.122729
20
76.376574
11
243.881208
21
76.328508
0
LINE
8
Layer 1
10
243.881208
20
76.328508
11
243.711390
21
76.467238
0
LINE
8
Layer 1
10
243.711390
20
76.467238
11
242.993172
21
76.864014
0
LINE
8
Layer 1
10
242.993172
20
76.864014
11
241.501809
21
77.418415
0
LINE
8
Layer 1
10
241.501809
20
77.418415
11
239.917113
21
77.901247
0
LINE
8
Layer 1
10
239.917113
20
77.901247
11
238.918900
21
78.083314
0
LINE
8
Layer 1
10
238.918900
20
78.083314
11
238.607530
21
78.138083
0
LINE
8
Layer 1
10
238.607530
20
78.138083
11
238.477928
21
78.327789
0
LINE
8
Layer 1
10
238.477928
20
78.327789
11
238.182862
21
78.566636
0
LINE
8
Layer 1
10
238.182862
20
78.566636
11
237.496411
21
78.820135
0
LINE
8
Layer 1
10
237.496411
20
78.820135
11
236.141832
21
79.018528
0
LINE
8
Layer 1
10
236.141832
20
79.018528
11
235.695215
21
79.280642
0
LINE
8
Layer 1
10
235.695215
20
79.280642
11
235.074133
21
79.708727
0
LINE
8
Layer 1
10
235.074133
20
79.708727
11
233.996545
21
80.176434
0
LINE
8
Layer 1
10
233.996545
20
80.176434
11
232.930533
21
80.509070
0
LINE
8
Layer 1
10
232.930533
20
80.509070
11
232.344177
21
80.531946
0
LINE
8
Layer 1
10
232.344177
20
80.531946
11
232.191468
21
80.492082
0
LINE
8
Layer 1
10
232.191468
20
80.492082
11
232.127924
21
80.699868
0
LINE
8
Layer 1
10
232.127924
20
80.699868
11
231.818317
21
81.034059
0
LINE
8
Layer 1
10
231.818317
20
81.034059
11
231.085112
21
81.414420
0
LINE
8
Layer 1
10
231.085112
20
81.414420
11
230.221732
21
81.715670
0
LINE
8
Layer 1
10
230.221732
20
81.715670
11
229.521600
21
81.812530
0
LINE
8
Layer 1
10
229.521600
20
81.812530
11
229.236776
21
81.891111
0
LINE
8
Layer 1
10
229.236776
20
81.891111
11
228.992433
21
82.120505
0
LINE
8
Layer 1
10
228.992433
20
82.120505
11
227.751377
21
82.890614
0
LINE
8
Layer 1
10
227.751377
20
82.890614
11
225.257881
21
84.164986
0
LINE
8
Layer 1
10
225.257881
20
84.164986
11
222.747651
21
85.339015
0
LINE
8
Layer 1
10
222.747651
20
85.339015
11
221.456390
21
85.808094
0
LINE
8
Layer 1
10
221.456390
20
85.808094
11
221.269594
21
85.859070
0
LINE
8
Layer 1
10
221.269594
20
85.859070
11
221.191806
21
86.098430
0
LINE
8
Layer 1
10
221.191806
20
86.098430
11
221.088177
21
86.298190
0
LINE
8
Layer 1
10
221.088177
20
86.298190
11
220.839028
21
86.254005
0
LINE
8
Layer 1
10
220.839028
20
86.254005
11
220.589879
21
86.187462
0
LINE
8
Layer 1
10
220.589879
20
86.187462
11
220.486250
21
86.333380
0
LINE
8
Layer 1
10
220.486250
20
86.333380
11
220.175364
21
86.727213
0
LINE
8
Layer 1
10
220.175364
20
86.727213
11
219.427916
21
87.256247
0
LINE
8
Layer 1
10
219.427916
20
87.256247
11
218.680468
21
87.636101
0
LINE
8
Layer 1
10
218.680468
20
87.636101
11
218.369582
21
87.671467
0
LINE
8
Layer 1
10
218.369582
20
87.671467
11
218.146670
21
87.730646
0
LINE
8
Layer 1
10
218.146670
20
87.730646
11
217.610757
21
88.168178
0
LINE
8
Layer 1
10
217.610757
20
88.168178
11
216.986604
21
88.613384
0
LINE
8
Layer 1
10
216.986604
20
88.613384
11
216.552423
21
88.690290
0
LINE
8
Layer 1
10
216.552423
20
88.690290
11
216.340888
21
88.666830
0
LINE
8
Layer 1
10
216.340888
20
88.666830
11
216.252914
21
88.869854
0
LINE
8
Layer 1
10
216.252914
20
88.869854
11
215.941207
21
89.261636
0
LINE
8
Layer 1
10
215.941207
20
89.261636
11
215.232195
21
89.754092
0
LINE
8
Layer 1
10
215.232195
20
89.754092
11
214.465041
21
90.144419
0
LINE
8
Layer 1
10
214.465041
20
90.144419
11
213.978907
21
90.229813
0
LINE
8
Layer 1
10
213.978907
20
90.229813
11
213.280759
21
90.840119
0
LINE
8
Layer 1
10
213.280759
20
90.840119
11
212.900906
21
91.265657
0
LINE
8
Layer 1
10
212.900906
20
91.265657
11
212.736423
21
91.298025
0
LINE
8
Layer 1
10
212.736423
20
91.298025
11
212.453010
21
91.378150
0
LINE
8
Layer 1
10
212.453010
20
91.378150
11
211.787803
21
91.918914
0
LINE
8
Layer 1
10
211.787803
20
91.918914
11
211.084408
21
92.490679
0
LINE
8
Layer 1
10
211.084408
20
92.490679
11
210.709361
21
92.645990
0
LINE
8
Layer 1
10
210.709361
20
92.645990
11
210.284439
21
92.842840
0
LINE
8
Layer 1
10
210.284439
20
92.842840
11
209.461585
21
93.514882
0
LINE
8
Layer 1
10
209.461585
20
93.514882
11
208.635555
21
94.183925
0
LINE
8
Layer 1
10
208.635555
20
94.183925
11
208.203226
21
94.373543
0
LINE
8
Layer 1
10
208.203226
20
94.373543
11
207.905216
21
94.494899
0
LINE
8
Layer 1
10
207.905216
20
94.494899
11
207.401361
21
95.000430
0
LINE
8
Layer 1
10
207.401361
20
95.000430
11
206.938957
21
95.461158
0
LINE
8
Layer 1
10
206.938957
20
95.461158
11
206.739550
21
95.475269
0
LINE
8
Layer 1
10
206.739550
20
95.475269
11
206.527530
21
95.505564
0
LINE
8
Layer 1
10
206.527530
20
95.505564
11
206.033994
21
96.004436
0
LINE
8
Layer 1
10
206.033994
20
96.004436
11
205.540722
21
96.531222
0
LINE
8
Layer 1
10
205.540722
20
96.531222
11
205.328438
21
96.627795
0
LINE
8
Layer 1
10
205.328438
20
96.627795
11
204.776252
21
96.981102
0
LINE
8
Layer 1
10
204.776252
20
96.981102
11
203.464711
21
98.124985
0
LINE
8
Layer 1
10
203.464711
20
98.124985
11
201.337107
21
99.833841
0
LINE
8
Layer 1
10
201.337107
20
99.833841
11
200.821258
21
100.201480
0
LINE
8
Layer 1
10
200.821258
20
100.201480
11
199.967270
21
101.082675
0
LINE
8
Layer 1
10
199.967270
20
101.082675
11
198.748422
21
102.204509
0
LINE
8
Layer 1
10
198.748422
20
102.204509
11
195.155026
21
105.549198
0
LINE
8
Layer 1
10
195.155026
20
105.549198
11
191.781410
21
109.113667
0
LINE
8
Layer 1
10
191.781410
20
109.113667
11
190.186853
21
111.046890
0
LINE
8
Layer 1
10
190.186853
20
111.046890
11
188.611699
21
112.999516
0
LINE
8
Layer 1
10
188.611699
20
112.999516
11
187.545957
21
114.403220
0
LINE
8
Layer 1
10
187.545957
20
114.403220
11
186.764289
21
115.365598
0
LINE
8
Layer 1
10
186.764289
20
115.365598
11
186.543009
21
115.869718
0
LINE
8
Layer 1
10
186.543009
20
115.869718
11
186.498691
21
116.060086
0
LINE
8
Layer 1
10
186.498691
20
116.060086
11
186.142959
21
116.268710
0
LINE
8
Layer 1
10
186.142959
20
116.268710
11
185.792650
21
116.518918
0
LINE
8
Layer 1
10
185.792650
20
116.518918
11
185.761959
21
116.808813
0
LINE
8
Layer 1
10
185.761959
20
116.808813
11
185.739557
21
117.095489
0
LINE
8
Layer 1
10
185.739557
20
117.095489
11
185.409181
21
117.337980
0
LINE
8
Layer 1
10
185.409181
20
117.337980
11
185.068662
21
117.563934
0
LINE
8
Layer 1
10
185.068662
20
117.563934
11
185.021830
21
117.811055
0
LINE
8
Layer 1
10
185.021830
20
117.811055
11
184.928697
21
118.219352
0
LINE
8
Layer 1
10
184.928697
20
118.219352
11
184.476788
21
118.832701
0
LINE
8
Layer 1
10
184.476788
20
118.832701
11
184.031406
21
119.368614
0
LINE
8
Layer 1
10
184.031406
20
119.368614
11
183.953266
21
119.591526
0
LINE
8
Layer 1
10
183.953266
20
119.591526
11
183.731854
21
120.239138
0
LINE
8
Layer 1
10
183.731854
20
120.239138
11
182.941851
21
121.796388
0
LINE
8
Layer 1
10
182.941851
20
121.796388
11
181.674083
21
124.449748
0
LINE
8
Layer 1
10
181.674083
20
124.449748
11
180.452253
21
127.564177
0
LINE
8
Layer 1
10
180.452253
20
127.564177
11
179.408421
21
130.771276
0
LINE
8
Layer 1
10
179.408421
20
130.771276
11
178.674649
21
133.702646
0
LINE
8
Layer 1
10
178.674649
20
133.702646
11
177.906298
21
137.230426
0
LINE
8
Layer 1
10
177.906298
20
137.230426
11
177.635048
21
138.616161
0
LINE
8
Layer 1
10
177.635048
20
138.616161
11
177.476593
21
140.565396
0
LINE
8
Layer 1
10
177.476593
20
140.565396
11
177.470617
21
145.408129
0
LINE
8
Layer 1
10
177.470617
20
145.408129
11
177.833472
21
150.266141
0
LINE
8
Layer 1
10
177.833472
20
150.266141
11
178.136053
21
152.234476
0
LINE
8
Layer 1
10
178.136053
20
152.234476
11
178.510254
21
153.646950
0
LINE
8
Layer 1
10
178.510254
20
153.646950
11
178.701151
21
154.397838
0
LINE
8
Layer 1
10
178.701151
20
154.397838
11
178.663713
21
154.898959
0
LINE
8
Layer 1
10
178.663713
20
154.898959
11
178.621291
21
155.127207
0
LINE
8
Layer 1
10
178.621291
20
155.127207
11
178.799532
21
155.222104
0
LINE
8
Layer 1
10
178.799532
20
155.222104
11
179.080817
21
155.489967
0
LINE
8
Layer 1
10
179.080817
20
155.489967
11
179.376324
21
156.120144
0
LINE
8
Layer 1
10
179.376324
20
156.120144
11
179.589016
21
156.852517
0
LINE
8
Layer 1
10
179.589016
20
156.852517
11
179.621858
21
157.426966
0
LINE
8
Layer 1
10
179.621858
20
157.426966
11
179.690826
21
157.613762
0
LINE
8
Layer 1
10
179.690826
20
157.613762
11
179.937594
21
157.691550
0
LINE
8
Layer 1
10
179.937594
20
157.691550
11
180.137354
21
157.795179
0
LINE
8
Layer 1
10
180.137354
20
157.795179
11
180.093169
21
158.044328
0
LINE
8
Layer 1
10
180.093169
20
158.044328
11
180.066270
21
158.293477
0
LINE
8
Layer 1
10
180.066270
20
158.293477
11
180.307658
21
158.397106
0
LINE
8
Layer 1
10
180.307658
20
158.397106
11
180.552530
21
158.457475
0
LINE
8
Layer 1
10
180.552530
20
158.457475
11
180.534142
21
158.602776
0
LINE
8
Layer 1
10
180.534142
20
158.602776
11
180.591247
21
158.950659
0
LINE
8
Layer 1
10
180.591247
20
158.950659
11
181.017447
21
159.497773
0
LINE
8
Layer 1
10
181.017447
20
159.497773
11
181.448983
21
160.073287
0
LINE
8
Layer 1
10
181.448983
20
160.073287
11
181.519098
21
160.489785
0
LINE
8
Layer 1
10
181.519098
20
160.489785
11
181.556536
21
160.768744
0
LINE
8
Layer 1
10
181.556536
20
160.768744
11
181.909623
21
161.014366
0
LINE
8
Layer 1
10
181.909623
20
161.014366
11
182.263592
21
161.224666
0
LINE
8
Layer 1
10
182.263592
20
161.224666
11
182.304029
21
161.419355
0
LINE
8
Layer 1
10
182.304029
20
161.419355
11
182.498498
21
161.926959
0
LINE
8
Layer 1
10
182.498498
20
161.926959
11
183.223721
21
162.890439
0
LINE
8
Layer 1
10
183.223721
20
162.890439
11
186.696071
21
166.737439
0
LINE
8
Layer 1
10
186.696071
20
166.737439
11
188.736230
21
168.765957
0
LINE
8
Layer 1
10
188.736230
20
168.765957
11
189.021275
21
168.835498
0
LINE
8
Layer 1
10
189.021275
20
168.835498
11
189.706369
21
169.264080
0
LINE
8
Layer 1
10
189.706369
20
169.264080
11
192.555978
21
170.874820
0
LINE
8
Layer 1
10
192.555978
20
170.874820
11
195.615401
21
172.133929
0
LINE
8
Layer 1
10
195.615401
20
172.133929
11
197.555680
21
172.743176
0
LINE
8
Layer 1
10
197.555680
20
172.743176
11
198.674543
21
172.968162
0
LINE
8
Layer 1
10
198.674543
20
172.968162
11
200.385180
21
173.127407
0
LINE
8
Layer 1
10
200.385180
20
173.127407
11
204.737358
21
173.250030
0
LINE
8
Layer 1
10
204.737358
20
173.250030
11
208.923378
21
173.113758
0
LINE
8
Layer 1
10
208.923378
20
173.113758
11
210.426317
21
172.949385
0
LINE
8
Layer 1
10
210.426317
20
172.949385
11
211.254403
21
172.721304
0
LINE
8
Layer 1
10
211.254403
20
172.721304
11
212.987248
21
172.387929
0
LINE
8
Layer 1
10
212.987248
20
172.387929
11
214.789238
21
172.011515
0
LINE
8
Layer 1
10
214.789238
20
172.011515
11
215.179146
21
171.898714
0
LINE
8
Layer 1
10
215.179146
20
171.898714
11
215.547358
21
171.979059
0
LINE
8
Layer 1
10
215.547358
20
171.979059
11
215.796507
21
172.034886
0
LINE
8
Layer 1
10
215.796507
20
172.034886
11
215.900136
21
171.862642
0
LINE
8
Layer 1
10
215.900136
20
171.862642
11
216.256293
21
171.579604
0
LINE
8
Layer 1
10
216.256293
20
171.579604
11
217.107122
21
171.277119
0
LINE
8
Layer 1
10
217.107122
20
171.277119
11
218.126160
21
171.048056
0
LINE
8
Layer 1
10
218.126160
20
171.048056
11
218.986943
21
170.985283
0
LINE
8
Layer 1
10
218.986943
20
170.985283
11
219.298446
21
170.905732
0
LINE
8
Layer 1
10
219.298446
20
170.905732
11
219.427916
21
170.667430
0
LINE
8
Layer 1
10
219.427916
20
170.667430
11
219.583359
21
170.478915
0
LINE
8
Layer 1
10
219.583359
20
170.478915
11
219.957083
21
170.519264
0
LINE
8
Layer 1
10
219.957083
20
170.519264
11
220.330807
21
170.570372
0
LINE
8
Layer 1
10
220.330807
20
170.570372
11
220.486250
21
170.408491
0
LINE
8
Layer 1
10
220.486250
20
170.408491
11
220.777545
21
170.155511
0
LINE
8
Layer 1
10
220.777545
20
170.155511
11
221.457712
21
169.891716
0
LINE
8
Layer 1
10
221.457712
20
169.891716
11
222.236172
21
169.706568
0
LINE
8
Layer 1
10
222.236172
20
169.706568
11
222.822346
21
169.689530
0
LINE
8
Layer 1
10
222.822346
20
169.689530
11
223.300713
21
169.345571
0
LINE
8
Layer 1
10
223.300713
20
169.345571
11
223.699440
21
169.045975
0
LINE
8
Layer 1
10
223.699440
20
169.045975
11
224.310364
21
168.887665
0
LINE
8
Layer 1
10
224.310364
20
168.887665
11
224.848526
21
168.779671
0
LINE
8
Layer 1
10
224.848526
20
168.779671
11
225.072364
21
168.600504
0
LINE
8
Layer 1
10
225.072364
20
168.600504
11
225.582542
21
168.243327
0
LINE
8
Layer 1
10
225.582542
20
168.243327
11
226.734169
21
167.727996
0
LINE
8
Layer 1
10
226.734169
20
167.727996
11
227.958887
21
167.283970
0
LINE
8
Layer 1
10
227.958887
20
167.283970
11
228.688338
21
167.140709
0
LINE
8
Layer 1
10
228.688338
20
167.140709
11
228.875267
21
167.084441
0
LINE
8
Layer 1
10
228.875267
20
167.084441
11
228.952922
21
166.842964
0
LINE
8
Layer 1
10
228.952922
20
166.842964
11
229.056551
21
166.643204
0
LINE
8
Layer 1
10
229.056551
20
166.643204
11
229.305700
21
166.687389
0
LINE
8
Layer 1
10
229.305700
20
166.687389
11
229.554849
21
166.725533
0
LINE
8
Layer 1
10
229.554849
20
166.725533
11
229.658478
21
166.511000
0
LINE
8
Layer 1
10
229.658478
20
166.511000
11
229.762107
21
166.296467
0
LINE
8
Layer 1
10
229.762107
20
166.296467
11
230.011256
21
166.334611
0
LINE
8
Layer 1
10
230.011256
20
166.334611
11
230.260405
21
166.372755
0
LINE
8
Layer 1
10
230.260405
20
166.372755
11
230.364034
21
166.158222
0
LINE
8
Layer 1
10
230.364034
20
166.158222
11
230.467663
21
165.943689
0
LINE
8
Layer 1
10
230.467663
20
165.943689
11
230.716812
21
165.981833
0
LINE
8
Layer 1
10
230.716812
20
165.981833
11
230.965961
21
166.019977
0
LINE
8
Layer 1
10
230.965961
20
166.019977
11
231.069590
21
165.805444
0
LINE
8
Layer 1
10
231.069590
20
165.805444
11
231.164443
21
165.585399
0
LINE
8
Layer 1
10
231.164443
20
165.585399
11
231.392382
21
165.610358
0
LINE
8
Layer 1
10
231.392382
20
165.610358
11
231.654937
21
165.661555
0
LINE
8
Layer 1
10
231.654937
20
165.661555
11
231.833354
21
165.504524
0
LINE
8
Layer 1
10
231.833354
20
165.504524
11
232.732216
21
164.817396
0
LINE
8
Layer 1
10
232.732216
20
164.817396
11
234.602000
21
163.693935
0
LINE
8
Layer 1
10
234.602000
20
163.693935
11
236.550167
21
162.642508
0
LINE
8
Layer 1
10
236.550167
20
162.642508
11
237.684177
21
162.171478
0
LINE
8
Layer 1
10
237.684177
20
162.171478
11
237.995680
21
162.088178
0
LINE
8
Layer 1
10
237.995680
20
162.088178
11
238.125150
21
161.904072
0
LINE
8
Layer 1
10
238.125150
20
161.904072
11
239.898791
21
160.801040
0
LINE
8
Layer 1
10
239.898791
20
160.801040
11
243.827762
21
158.781061
0
LINE
8
Layer 1
10
243.827762
20
158.781061
11
247.824136
21
156.877697
0
LINE
8
Layer 1
10
247.824136
20
156.877697
11
249.799985
21
156.124510
0
LINE
8
Layer 1
10
249.799985
20
156.124510
11
250.025675
21
156.148190
0
LINE
8
Layer 1
10
250.025675
20
156.148190
11
250.119602
21
155.927660
0
LINE
8
Layer 1
10
250.119602
20
155.927660
11
250.223231
21
155.713127
0
LINE
8
Layer 1
10
250.223231
20
155.713127
11
250.472380
21
155.751271
0
LINE
8
Layer 1
10
250.472380
20
155.751271
11
250.721529
21
155.809656
0
LINE
8
Layer 1
10
250.721529
20
155.809656
11
250.825158
21
155.643674
0
LINE
8
Layer 1
10
250.825158
20
155.643674
11
251.201352
21
155.309830
0
LINE
8
Layer 1
10
251.201352
20
155.309830
11
252.122323
21
154.848821
0
LINE
8
Layer 1
10
252.122323
20
154.848821
11
254.352938
21
154.092862
0
LINE
8
Layer 1
10
254.352938
20
154.092862
11
255.059905
21
153.753842
0
LINE
8
Layer 1
10
255.059905
20
153.753842
11
256.521305
21
153.103049
0
LINE
8
Layer 1
10
256.521305
20
153.103049
11
259.468439
21
152.066990
0
LINE
8
Layer 1
10
259.468439
20
152.066990
11
262.417228
21
151.139873
0
LINE
8
Layer 1
10
262.417228
20
151.139873
11
263.883588
21
150.815907
0
LINE
8
Layer 1
10
263.883588
20
150.815907
11
264.120920
21
150.843997
0
LINE
8
Layer 1
10
264.120920
20
150.843997
11
264.288930
21
150.662801
0
LINE
8
Layer 1
10
264.288930
20
150.662801
11
264.683248
21
150.396410
0
LINE
8
Layer 1
10
264.683248
20
150.396410
11
265.465445
21
150.219712
0
LINE
8
Layer 1
10
265.465445
20
150.219712
11
266.272954
21
150.058933
0
LINE
8
Layer 1
10
266.272954
20
150.058933
11
266.728037
21
149.830951
0
LINE
8
Layer 1
10
266.728037
20
149.830951
11
267.237317
21
149.603100
0
LINE
8
Layer 1
10
267.237317
20
149.603100
11
268.174427
21
149.443248
0
LINE
8
Layer 1
10
268.174427
20
149.443248
11
269.837423
21
149.071772
0
LINE
8
Layer 1
10
269.837423
20
149.071772
11
271.566035
21
148.702061
0
LINE
8
Layer 1
10
271.566035
20
148.702061
11
273.402950
21
148.393027
0
LINE
8
Layer 1
10
273.402950
20
148.393027
11
274.552147
21
148.097712
0
LINE
8
Layer 1
10
274.552147
20
148.097712
11
276.245266
21
147.844623
0
LINE
8
Layer 1
10
276.245266
20
147.844623
11
280.740865
21
147.490357
0
LINE
8
Layer 1
10
280.740865
20
147.490357
11
285.844939
21
147.380698
0
LINE
8
Layer 1
10
285.844939
20
147.380698
11
290.512683
21
147.566116
0
LINE
8
Layer 1
10
290.512683
20
147.566116
11
293.974141
21
147.788013
0
LINE
8
Layer 1
10
293.974141
20
147.788013
11
295.367614
21
148.047305
0
LINE
8
Layer 1
10
295.367614
20
148.047305
11
296.492270
21
148.349283
0
LINE
8
Layer 1
10
296.492270
20
148.349283
11
299.142824
21
148.730548
0
LINE
8
Layer 1
10
299.142824
20
148.730548
11
300.567562
21
149.176900
0
LINE
8
Layer 1
10
300.567562
20
149.176900
11
300.896880
21
149.358581
0
LINE
8
Layer 1
10
300.896880
20
149.358581
11
301.687632
21
149.479936
0
LINE
8
Layer 1
10
301.687632
20
149.479936
11
302.537518
21
149.616109
0
LINE
8
Layer 1
10
302.537518
20
149.616109
11
303.009844
21
149.832714
0
LINE
8
Layer 1
10
303.009844
20
149.832714
11
303.565469
21
150.117759
0
LINE
8
Layer 1
10
303.565469
20
150.117759
11
305.232742
21
150.467406
0
LINE
8
Layer 1
10
305.232742
20
150.467406
11
305.927026
21
150.752908
0
LINE
8
Layer 1
10
305.927026
20
150.752908
11
306.211304
21
151.005701
0
LINE
8
Layer 1
10
306.211304
20
151.005701
11
306.366747
21
151.167582
0
LINE
8
Layer 1
10
306.366747
20
151.167582
11
306.740471
21
151.116474
0
LINE
8
Layer 1
10
306.740471
20
151.116474
11
307.114195
21
151.093808
0
LINE
8
Layer 1
10
307.114195
20
151.093808
11
307.269638
21
151.324613
0
LINE
8
Layer 1
10
307.269638
20
151.324613
11
307.365461
21
151.555859
0
LINE
8
Layer 1
10
307.365461
20
151.555859
11
307.595958
21
151.534163
0
LINE
8
Layer 1
10
307.595958
20
151.534163
11
308.092228
21
151.525564
0
LINE
8
Layer 1
10
308.092228
20
151.525564
11
308.864988
21
151.756678
0
LINE
8
Layer 1
10
308.864988
20
151.756678
11
309.637087
21
152.120744
0
LINE
8
Layer 1
10
309.637087
20
152.120744
11
310.131373
21
152.511005
0
LINE
8
Layer 1
10
310.131373
20
152.511005
11
310.572346
21
152.782644
0
LINE
8
Layer 1
10
310.572346
20
152.782644
11
311.585304
21
152.822243
0
LINE
8
Layer 1
10
311.585304
20
152.822243
11
312.359872
21
153.306872
0
LINE
8
Layer 1
10
312.359872
20
153.306872
11
312.751279
21
153.637602
0
LINE
8
Layer 1
10
312.751279
20
153.637602
11
312.914086
21
153.654006
0
LINE
8
Layer 1
10
312.914086
20
153.654006
11
313.478950
21
153.802327
0
LINE
8
Layer 1
10
313.478950
20
153.802327
11
314.743769
21
154.373056
0
LINE
8
Layer 1
10
314.743769
20
154.373056
11
316.794644
21
155.532901
0
LINE
8
Layer 1
10
316.794644
20
155.532901
11
317.466686
21
155.857810
0
LINE
8
Layer 1
10
317.466686
20
155.857810
11
318.661292
21
156.443769
0
LINE
8
Layer 1
10
318.661292
20
156.443769
11
320.451541
21
157.583203
0
LINE
8
Layer 1
10
320.451541
20
157.583203
11
322.080659
21
158.762788
0
LINE
8
Layer 1
10
322.080659
20
158.762788
11
322.791870
21
159.469198
0
LINE
8
Layer 1
10
322.791870
20
159.469198
11
322.888399
21
159.678308
0
LINE
8
Layer 1
10
322.888399
20
159.678308
11
323.120659
21
159.646646
0
LINE
8
Layer 1
10
323.120659
20
159.646646
11
323.498573
21
159.711645
0
LINE
8
Layer 1
10
323.498573
20
159.711645
11
323.945807
21
160.152882
0
LINE
8
Layer 1
10
323.945807
20
160.152882
11
324.353354
21
160.597118
0
LINE
8
Layer 1
10
324.353354
20
160.597118
11
324.635488
21
160.669349
0
LINE
8
Layer 1
10
324.635488
20
160.669349
11
324.979623
21
160.797760
0
LINE
8
Layer 1
10
324.979623
20
160.797760
11
325.536483
21
161.377022
0
LINE
8
Layer 1
10
325.536483
20
161.377022
11
326.127518
21
162.013081
0
LINE
8
Layer 1
10
326.127518
20
162.013081
11
326.554247
21
162.277664
0
LINE
8
Layer 1
10
326.554247
20
162.277664
11
327.700996
21
163.210321
0
LINE
8
Layer 1
10
327.700996
20
163.210321
11
330.023819
21
165.452666
0
LINE
8
Layer 1
10
330.023819
20
165.452666
11
332.166152
21
167.695011
0
LINE
8
Layer 1
10
332.166152
20
167.695011
11
332.879204
21
168.627668
0
LINE
8
Layer 1
10
332.879204
20
168.627668
11
332.938030
21
168.843215
0
LINE
8
Layer 1
10
332.938030
20
168.843215
11
333.507502
21
169.361446
0
LINE
8
Layer 1
10
333.507502
20
169.361446
11
334.107313
21
169.975015
0
LINE
8
Layer 1
10
334.107313
20
169.975015
11
334.239869
21
170.419780
0
LINE
8
Layer 1
10
334.239869
20
170.419780
11
334.205473
21
170.648998
0
LINE
8
Layer 1
10
334.205473
20
170.648998
11
334.404969
21
170.744336
0
LINE
8
Layer 1
10
334.404969
20
170.744336
11
335.436828
21
171.883236
0
LINE
8
Layer 1
10
335.436828
20
171.883236
11
337.222651
21
174.410140
0
LINE
8
Layer 1
10
337.222651
20
174.410140
11
338.866194
21
176.990359
0
LINE
8
Layer 1
10
338.866194
20
176.990359
11
339.471214
21
178.289199
0
LINE
8
Layer 1
10
339.471214
20
178.289199
11
339.429498
21
178.441908
0
LINE
8
Layer 1
10
339.429498
20
178.441908
11
339.632786
21
178.505452
0
LINE
8
Layer 1
10
339.632786
20
178.505452
11
340.153123
21
179.001155
0
LINE
8
Layer 1
10
340.153123
20
179.001155
11
340.949354
21
180.121308
0
LINE
8
Layer 1
10
340.949354
20
180.121308
11
341.662505
21
181.315478
0
LINE
8
Layer 1
10
341.662505
20
181.315478
11
341.933604
21
182.033232
0
LINE
8
Layer 1
10
341.933604
20
182.033232
11
342.403505
21
182.495724
0
LINE
8
Layer 1
10
342.403505
20
182.495724
11
342.704733
21
182.795277
0
LINE
8
Layer 1
10
342.704733
20
182.795277
11
342.710421
21
183.113085
0
LINE
8
Layer 1
10
342.710421
20
183.113085
11
342.656623
21
183.347110
0
LINE
8
Layer 1
10
342.656623
20
183.347110
11
342.814491
21
183.444344
0
LINE
8
Layer 1
10
342.814491
20
183.444344
11
343.467373
21
184.171954
0
LINE
8
Layer 1
10
343.467373
20
184.171954
11
344.613835
21
185.790450
0
LINE
8
Layer 1
10
344.613835
20
185.790450
11
345.682510
21
187.453330
0
LINE
8
Layer 1
10
345.682510
20
187.453330
11
346.102029
21
188.314092
0
LINE
8
Layer 1
10
346.102029
20
188.314092
11
346.853446
21
189.096200
0
LINE
8
Layer 1
10
346.853446
20
189.096200
11
347.339354
21
189.576111
0
LINE
8
Layer 1
10
347.339354
20
189.576111
11
347.370972
21
189.782706
0
LINE
8
Layer 1
10
347.370972
20
189.782706
11
347.488358
21
190.062856
0
LINE
8
Layer 1
10
347.488358
20
190.062856
11
348.179892
21
190.720037
0
LINE
8
Layer 1
10
348.179892
20
190.720037
11
348.910892
21
191.420125
0
LINE
8
Layer 1
10
348.910892
20
191.420125
11
349.123573
21
191.802713
0
LINE
8
Layer 1
10
349.123573
20
191.802713
11
349.702217
21
192.543194
0
LINE
8
Layer 1
10
349.702217
20
192.543194
11
351.313266
21
194.103884
0
LINE
8
Layer 1
10
351.313266
20
194.103884
11
354.116087
21
196.813925
0
LINE
8
Layer 1
10
354.116087
20
196.813925
11
354.735565
21
197.287000
0
LINE
8
Layer 1
10
354.735565
20
197.287000
11
356.925258
21
198.208456
0
LINE
8
Layer 1
10
356.925258
20
198.208456
11
360.362727
21
199.670015
0
LINE
8
Layer 1
10
360.362727
20
199.670015
11
362.113564
21
200.314894
0
LINE
8
Layer 1
10
362.113564
20
200.314894
11
363.701065
21
200.623221
0
LINE
8
Layer 1
10
363.701065
20
200.623221
11
365.830786
21
200.954833
0
LINE
8
Layer 1
10
365.830786
20
200.954833
11
367.690753
21
201.124800
0
LINE
8
Layer 1
10
367.690753
20
201.124800
11
370.388060
21
201.089550
0
LINE
8
Layer 1
10
370.388060
20
201.089550
11
373.029409
21
200.888604
0
LINE
8
Layer 1
10
373.029409
20
200.888604
11
374.721497
21
200.561485
0
LINE
8
Layer 1
10
374.721497
20
200.561485
11
375.247048
21
200.450228
0
LINE
8
Layer 1
10
375.247048
20
200.450228
11
375.667295
21
200.528677
0
LINE
8
Layer 1
10
375.667295
20
200.528677
11
375.980518
21
200.566909
0
LINE
8
Layer 1
10
375.980518
20
200.566909
11
376.249026
21
200.359344
0
LINE
8
Layer 1
10
376.249026
20
200.359344
11
376.554399
21
200.142297
0
LINE
8
Layer 1
10
376.554399
20
200.142297
11
376.956346
21
200.157555
0
LINE
8
Layer 1
10
376.956346
20
200.157555
11
377.324337
21
200.177575
0
LINE
8
Layer 1
10
377.324337
20
200.177575
11
377.548660
21
199.972699
0
LINE
8
Layer 1
10
377.548660
20
199.972699
11
377.916475
21
199.698193
0
LINE
8
Layer 1
10
377.916475
20
199.698193
11
378.629572
21
199.551482
0
LINE
8
Layer 1
10
378.629572
20
199.551482
11
379.306950
21
199.445560
0
LINE
8
Layer 1
10
379.306950
20
199.445560
11
379.588775
21
199.269260
0
LINE
8
Layer 1
10
379.588775
20
199.269260
11
380.311661
21
198.869827
0
LINE
8
Layer 1
10
380.311661
20
198.869827
11
381.489896
21
198.659306
0
LINE
8
Layer 1
10
381.489896
20
198.659306
11
382.019063
21
198.378495
0
LINE
8
Layer 1
10
382.019063
20
198.378495
11
384.352733
21
196.701168
0
LINE
8
Layer 1
10
384.352733
20
196.701168
11
386.488760
21
195.464902
0
LINE
8
Layer 1
10
386.488760
20
195.464902
11
388.196558
21
193.674906
0
LINE
8
Layer 1
10
388.196558
20
193.674906
11
390.596860
21
191.117265
0
LINE
8
Layer 1
10
390.596860
20
191.117265
11
391.035628
21
190.681188
0
LINE
8
Layer 1
10
391.035628
20
190.681188
11
391.090749
21
190.499904
0
LINE
8
Layer 1
10
391.090749
20
190.499904
11
391.398763
21
189.815388
0
LINE
8
Layer 1
10
391.398763
20
189.815388
11
392.368732
21
188.297202
0
LINE
8
Layer 1
10
392.368732
20
188.297202
11
393.460739
21
186.748391
0
LINE
8
Layer 1
10
393.460739
20
186.748391
11
394.134870
21
185.971998
0
LINE
8
Layer 1
10
394.134870
20
185.971998
11
394.270690
21
185.793581
0
LINE
8
Layer 1
10
394.270690
20
185.793581
11
394.210718
21
185.531026
0
LINE
8
Layer 1
10
394.210718
20
185.531026
11
394.185759
21
185.303087
0
LINE
8
Layer 1
10
394.185759
20
185.303087
11
394.405804
21
185.208234
0
LINE
8
Layer 1
10
394.405804
20
185.208234
11
394.620337
21
185.104605
0
LINE
8
Layer 1
10
394.620337
20
185.104605
11
394.582193
21
184.855456
0
LINE
8
Layer 1
10
394.582193
20
184.855456
11
394.538008
21
184.606307
0
LINE
8
Layer 1
10
394.538008
20
184.606307
11
394.737768
21
184.502678
0
LINE
8
Layer 1
10
394.737768
20
184.502678
11
394.989343
21
184.424890
0
LINE
8
Layer 1
10
394.989343
20
184.424890
11
395.069732
21
184.238094
0
LINE
8
Layer 1
10
395.069732
20
184.238094
11
395.119606
21
183.171338
0
LINE
8
Layer 1
10
395.119606
20
183.171338
11
395.552332
21
182.322863
0
LINE
8
Layer 1
10
395.552332
20
182.322863
11
396.023291
21
181.504065
0
LINE
8
Layer 1
10
396.023291
20
181.504065
11
396.381449
21
179.844774
0
LINE
8
Layer 1
10
396.381449
20
179.844774
11
396.831153
21
178.857524
0
LINE
8
Layer 1
10
396.831153
20
178.857524
11
397.009482
21
178.535085
0
LINE
8
Layer 1
10
397.009482
20
178.535085
11
397.128545
21
177.760738
0
LINE
8
Layer 1
10
397.128545
20
177.760738
11
397.289014
21
176.858817
0
LINE
8
Layer 1
10
397.289014
20
176.858817
11
397.566695
21
176.229681
0
LINE
8
Layer 1
10
397.566695
20
176.229681
11
397.757724
21
175.858735
0
LINE
8
Layer 1
10
397.757724
20
175.858735
11
397.710628
21
175.577747
0
LINE
8
Layer 1
10
397.710628
20
175.577747
11
397.638485
21
175.238728
0
LINE
8
Layer 1
10
397.638485
20
175.238728
11
397.769542
21
174.728258
0
LINE
8
Layer 1
10
397.769542
20
174.728258
11
397.990381
21
173.833966
0
LINE
8
Layer 1
10
397.990381
20
173.833966
11
398.307176
21
171.011742
0
LINE
8
Layer 1
10
398.307176
20
171.011742
11
398.573033
21
167.731799
0
LINE
8
Layer 1
10
398.573033
20
167.731799
11
398.633804
21
163.716116
0
LINE
8
Layer 1
10
398.633804
20
163.716116
11
398.499512
21
160.018198
0
LINE
8
Layer 1
10
398.499512
20
160.018198
11
398.180176
21
157.691550
0
LINE
8
Layer 1
10
398.180176
20
157.691550
11
397.410767
21
154.163770
0
LINE
8
Layer 1
10
397.410767
20
154.163770
11
396.669492
21
151.061528
0
LINE
8
Layer 1
10
396.669492
20
151.061528
11
395.731897
21
147.813766
0
LINE
8
Layer 1
10
395.731897
20
147.813766
11
394.647810
21
144.021402
0
LINE
8
Layer 1
10
394.647810
20
144.021402
11
394.567773
21
143.709900
0
LINE
8
Layer 1
10
394.567773
20
143.709900
11
394.385343
21
143.580430
0
LINE
8
Layer 1
10
394.385343
20
143.580430
11
394.177110
21
143.373873
0
LINE
8
Layer 1
10
394.177110
20
143.373873
11
393.961701
21
142.871214
0
LINE
8
Layer 1
10
393.961701
20
142.871214
11
393.745756
21
141.679662
0
LINE
8
Layer 1
10
393.745756
20
141.679662
11
393.422964
21
141.150495
0
LINE
8
Layer 1
10
393.422964
20
141.150495
11
392.808337
21
140.299341
0
LINE
8
Layer 1
10
392.808337
20
140.299341
11
391.987070
21
138.736523
0
LINE
8
Layer 1
10
391.987070
20
138.736523
11
391.310398
21
137.190772
0
LINE
8
Layer 1
10
391.310398
20
137.190772
11
391.129555
21
136.390814
0
LINE
8
Layer 1
10
391.129555
20
136.390814
11
391.157115
21
136.236342
0
LINE
8
Layer 1
10
391.157115
20
136.236342
11
390.916124
21
136.172092
0
LINE
8
Layer 1
10
390.916124
20
136.172092
11
390.669224
21
136.077239
0
LINE
8
Layer 1
10
390.669224
20
136.077239
11
390.682938
21
135.849300
0
LINE
8
Layer 1
10
390.682938
20
135.849300
11
390.737354
21
135.586745
0
LINE
8
Layer 1
10
390.737354
20
135.586745
11
390.588040
21
135.408328
0
LINE
8
Layer 1
10
390.588040
20
135.408328
11
389.951194
21
134.613061
0
LINE
8
Layer 1
10
389.951194
20
134.613061
11
388.942904
21
132.980289
0
LINE
8
Layer 1
10
388.942904
20
132.980289
11
388.008500
21
131.275219
0
LINE
8
Layer 1
10
388.008500
20
131.275219
11
387.593308
21
130.263060
0
LINE
8
Layer 1
10
387.593308
20
130.263060
11
387.504055
21
129.951558
0
LINE
8
Layer 1
10
387.504055
20
129.951558
11
387.300502
21
129.822088
0
LINE
8
Layer 1
10
387.300502
20
129.822088
11
386.957277
21
129.513347
0
LINE
8
Layer 1
10
386.957277
20
129.513347
11
386.495683
21
128.803927
0
LINE
8
Layer 1
10
386.495683
20
128.803927
11
386.101889
21
128.019034
0
LINE
8
Layer 1
10
386.101889
20
128.019034
11
385.962063
21
127.483875
0
LINE
8
Layer 1
10
385.962063
20
127.483875
11
385.659026
21
127.039375
0
LINE
8
Layer 1
10
385.659026
20
127.039375
11
384.756774
21
125.952053
0
LINE
8
Layer 1
10
384.756774
20
125.952053
11
383.319667
21
123.892022
0
LINE
8
Layer 1
10
383.319667
20
123.892022
11
382.040119
21
121.893838
0
LINE
8
Layer 1
10
382.040119
20
121.893838
11
381.610546
21
120.992055
0
LINE
8
Layer 1
10
381.610546
20
120.992055
11
381.618924
21
120.877490
0
LINE
8
Layer 1
10
381.618924
20
120.877490
11
381.257415
21
120.617404
0
LINE
8
Layer 1
10
381.257415
20
120.617404
11
380.876283
21
120.263348
0
LINE
8
Layer 1
10
380.876283
20
120.263348
11
380.837257
21
119.922785
0
LINE
8
Layer 1
10
380.837257
20
119.922785
11
380.884793
21
119.688760
0
LINE
8
Layer 1
10
380.884793
20
119.688760
11
380.711668
21
119.591526
0
LINE
8
Layer 1
10
380.711668
20
119.591526
11
379.958024
21
118.842611
0
LINE
8
Layer 1
10
379.958024
20
118.842611
11
378.617930
21
117.166001
0
LINE
8
Layer 1
10
378.617930
20
117.166001
11
377.343983
21
115.416894
0
LINE
8
Layer 1
10
377.343983
20
115.416894
11
376.788776
21
114.450492
0
LINE
8
Layer 1
10
376.788776
20
114.450492
11
375.884606
21
113.530800
0
LINE
8
Layer 1
10
375.884606
20
113.530800
11
375.284178
21
112.972264
0
LINE
8
Layer 1
10
375.284178
20
112.972264
11
375.130367
21
112.643916
0
LINE
8
Layer 1
10
375.130367
20
112.643916
11
374.838399
21
112.158626
0
LINE
8
Layer 1
10
374.838399
20
112.158626
11
373.904816
21
111.223279
0
LINE
8
Layer 1
10
373.904816
20
111.223279
11
372.969205
21
110.290446
0
LINE
8
Layer 1
10
372.969205
20
110.290446
11
372.671504
21
109.811109
0
LINE
8
Layer 1
10
372.671504
20
109.811109
11
372.219551
21
109.190837
0
LINE
8
Layer 1
10
372.219551
20
109.190837
11
370.913259
21
107.920219
0
LINE
8
Layer 1
10
370.913259
20
107.920219
11
369.648814
21
106.695373
0
LINE
8
Layer 1
10
369.648814
20
106.695373
11
369.298241
21
106.185962
0
LINE
8
Layer 1
10
369.298241
20
106.185962
11
369.622312
21
105.952732
0
LINE
8
Layer 1
10
369.622312
20
105.952732
11
369.980514
21
105.392212
0
LINE
8
Layer 1
10
369.980514
20
105.392212
11
370.891519
21
104.106159
0
LINE
8
Layer 1
10
370.891519
20
104.106159
11
372.544151
21
102.129015
0
LINE
8
Layer 1
10
372.544151
20
102.129015
11
375.106494
21
99.039810
0
LINE
8
Layer 1
10
375.106494
20
99.039810
11
377.875377
21
95.445151
0
LINE
8
Layer 1
10
377.875377
20
95.445151
11
380.092669
21
92.360675
0
LINE
8
Layer 1
10
380.092669
20
92.360675
11
381.000240
21
90.802019
0
LINE
8
Layer 1
10
381.000240
20
90.802019
11
381.078028
21
90.463793
0
LINE
8
Layer 1
10
381.078028
20
90.463793
11
381.264823
21
90.339880
0
LINE
8
Layer 1
10
381.264823
20
90.339880
11
383.112300
21
92.153219
0
LINE
8
Layer 1
10
383.112300
20
92.153219
11
386.799558
21
96.366695
0
LINE
8
Layer 1
10
386.799558
20
96.366695
11
390.884484
21
101.285749
0
LINE
8
Layer 1
10
390.884484
20
101.285749
11
393.924968
21
105.215823
0
LINE
8
Layer 1
10
393.924968
20
105.215823
11
395.641409
21
107.382541
0
LINE
8
Layer 1
10
395.641409
20
107.382541
11
396.218014
21
107.822549
0
LINE
8
Layer 1
10
396.218014
20
107.822549
11
396.726025
21
107.949852
0
LINE
8
Layer 1
10
396.726025
20
107.949852
11
399.676241
21
106.760202
0
LINE
8
Layer 1
10
399.676241
20
106.760202
11
405.713221
21
103.873017
0
LINE
8
Layer 1
10
405.713221
20
103.873017
11
412.761968
21
100.310946
0
LINE
8
Layer 1
10
412.761968
20
100.310946
11
418.747486
21
97.096637
0
LINE
8
Layer 1
10
418.747486
20
97.096637
11
422.372903
21
94.971739
0
LINE
8
Layer 1
10
422.372903
20
94.971739
11
425.522367
21
92.959389
0
LINE
8
Layer 1
10
425.522367
20
92.959389
11
428.452425
21
90.887176
0
LINE
8
Layer 1
10
428.452425
20
90.887176
11
431.419625
21
88.582693
0
LINE
8
Layer 1
10
431.419625
20
88.582693
11
441.516484
21
80.433168
0
LINE
8
Layer 1
10
441.516484
20
80.433168
11
446.452057
21
76.577773
0
LINE
8
Layer 1
10
446.452057
20
76.577773
11
450.505973
21
73.729019
0
LINE
8
Layer 1
10
450.505973
20
73.729019
11
454.023313
21
71.662969
0
LINE
8
Layer 1
10
454.023313
20
71.662969
11
457.349160
21
70.155687
0
LINE
8
Layer 1
10
457.349160
20
70.155687
11
459.847865
21
69.371555
0
LINE
8
Layer 1
10
459.847865
20
69.371555
11
462.357285
21
68.916862
0
LINE
8
Layer 1
10
462.357285
20
68.916862
11
464.634798
21
68.819556
0
LINE
8
Layer 1
10
464.634798
20
68.819556
11
466.437780
21
69.107583
0
LINE
8
Layer 1
10
466.437780
20
69.107583
11
467.679349
21
69.776527
0
LINE
8
Layer 1
10
467.679349
20
69.776527
11
469.039253
21
70.906574
0
LINE
8
Layer 1
10
469.039253
20
70.906574
11
470.288164
21
72.277922
0
LINE
8
Layer 1
10
470.288164
20
72.277922
11
471.196755
21
73.670767
0
LINE
8
Layer 1
10
471.196755
20
73.670767
11
471.498691
21
74.477270
0
LINE
8
Layer 1
10
471.498691
20
74.477270
11
471.687861
21
75.540275
0
LINE
8
Layer 1
10
471.687861
20
75.540275
11
471.703212
21
78.889897
0
LINE
8
Layer 1
10
471.703212
20
78.889897
11
471.193431
21
84.627847
0
LINE
8
Layer 1
10
471.193431
20
84.627847
11
470.109141
21
93.662343
0
LINE
8
Layer 1
10
470.109141
20
93.662343
11
468.654736
21
105.573572
0
LINE
8
Layer 1
10
468.654736
20
105.573572
11
467.844129
21
113.844861
0
LINE
8
Layer 1
10
467.844129
20
113.844861
11
467.491252
21
120.932534
0
LINE
8
Layer 1
10
467.491252
20
120.932534
11
467.410036
21
129.292921
0
LINE
8
Layer 1
10
467.410036
20
129.292921
11
467.645080
21
141.475492
0
LINE
8
Layer 1
10
467.645080
20
141.475492
11
467.969128
21
146.568901
0
LINE
8
Layer 1
10
467.969128
20
146.568901
11
468.450863
21
151.151399
0
LINE
8
Layer 1
10
468.450863
20
151.151399
11
469.105289
21
155.338741
0
LINE
8
Layer 1
10
469.105289
20
155.338741
11
469.947408
21
159.246684
0
LINE
8
Layer 1
10
469.947408
20
159.246684
11
470.992223
21
162.990981
0
LINE
8
Layer 1
10
470.992223
20
162.990981
11
472.254736
21
166.687389
0
LINE
8
Layer 1
10
472.254736
20
166.687389
11
473.425888
21
169.501940
0
LINE
8
Layer 1
10
473.425888
20
169.501940
11
474.829972
21
172.373641
0
LINE
8
Layer 1
10
474.829972
20
172.373641
11
476.246954
21
174.882863
0
LINE
8
Layer 1
10
476.246954
20
174.882863
11
477.456801
21
176.609976
0
LINE
8
Layer 1
10
477.456801
20
176.609976
11
478.636843
21
177.976285
0
LINE
8
Layer 1
10
478.636843
20
177.976285
11
483.204613
21
178.152674
0
LINE
8
Layer 1
10
483.204613
20
178.152674
11
485.870330
21
178.279613
0
LINE
8
Layer 1
10
485.870330
20
178.279613
11
487.563935
21
178.498529
0
LINE
8
Layer 1
10
487.563935
20
178.498529
11
488.962330
21
178.957884
0
LINE
8
Layer 1
10
488.962330
20
178.957884
11
490.742420
21
179.806144
0
LINE
8
Layer 1
10
490.742420
20
179.806144
11
492.878229
21
180.977727
0
LINE
8
Layer 1
10
492.878229
20
180.977727
11
494.795707
21
182.286471
0
LINE
8
Layer 1
10
494.795707
20
182.286471
11
496.551657
21
183.800781
0
LINE
8
Layer 1
10
496.551657
20
183.800781
11
498.202881
21
185.589058
0
LINE
8
Layer 1
10
498.202881
20
185.589058
11
499.806183
21
187.719706
0
LINE
8
Layer 1
10
499.806183
20
187.719706
11
501.418364
21
190.261128
0
LINE
8
Layer 1
10
501.418364
20
190.261128
11
503.096229
21
193.281728
0
LINE
8
Layer 1
10
503.096229
20
193.281728
11
504.896579
21
196.849908
0
LINE
8
Layer 1
10
504.896579
20
196.849908
11
507.935453
21
202.791968
0
LINE
8
Layer 1
10
507.935453
20
202.791968
11
510.300433
21
206.922425
0
LINE
8
Layer 1
10
510.300433
20
206.922425
11
512.233827
21
209.451750
0
LINE
8
Layer 1
10
512.233827
20
209.451750
11
514.647407
21
212.071794
0
LINE
8
Layer 1
10
514.647407
20
212.071794
11
517.138047
21
214.377578
0
LINE
8
Layer 1
10
517.138047
20
214.377578
11
519.302622
21
215.964126
0
LINE
8
Layer 1
10
519.302622
20
215.964126
11
520.870349
21
216.760809
0
LINE
8
Layer 1
10
520.870349
20
216.760809
11
522.632835
21
217.435656
0
LINE
8
Layer 1
10
522.632835
20
217.435656
11
524.574030
21
217.986025
0
LINE
8
Layer 1
10
524.574030
20
217.986025
11
526.677887
21
218.409274
0
LINE
8
Layer 1
10
526.677887
20
218.409274
11
531.309388
21
218.863845
0
LINE
8
Layer 1
10
531.309388
20
218.863845
11
536.398949
21
218.778236
0
LINE
8
Layer 1
10
536.398949
20
218.778236
11
540.481743
21
218.708297
0
LINE
8
Layer 1
10
540.481743
20
218.708297
11
542.054440
21
218.891965
0
LINE
8
Layer 1
10
542.054440
20
218.891965
11
543.372356
21
219.242403
0
LINE
8
Layer 1
10
543.372356
20
219.242403
11
544.478754
21
219.775371
0
LINE
8
Layer 1
10
544.478754
20
219.775371
11
545.416897
21
220.506627
0
LINE
8
Layer 1
10
545.416897
20
220.506627
11
546.230050
21
221.451932
0
LINE
8
Layer 1
10
546.230050
20
221.451932
11
546.961475
21
222.627044
0
LINE
8
Layer 1
10
546.961475
20
222.627044
11
547.472347
21
223.676283
0
LINE
8
Layer 1
10
547.472347
20
223.676283
11
547.812861
21
224.691060
0
LINE
8
Layer 1
10
547.812861
20
224.691060
11
548.148573
21
227.265722
0
LINE
8
Layer 1
10
548.148573
20
227.265722
11
548.139710
21
229.793420
0
LINE
8
Layer 1
10
548.139710
20
229.793420
11
547.890455
21
230.561225
0
LINE
8
Layer 1
10
547.890455
20
230.561225
11
547.410914
21
231.370999
0
LINE
8
Layer 1
10
547.410914
20
231.370999
11
546.672404
21
232.301397
0
LINE
8
Layer 1
10
546.672404
20
232.301397
11
545.729486
21
233.176969
0
LINE
8
Layer 1
10
545.729486
20
233.176969
11
544.593224
21
233.992100
0
LINE
8
Layer 1
10
544.593224
20
233.992100
11
543.274680
21
234.741176
0
LINE
8
Layer 1
10
543.274680
20
234.741176
11
540.135000
21
236.018706
0
LINE
8
Layer 1
10
540.135000
20
236.018706
11
536.398949
21
236.964647
0
LINE
8
Layer 1
10
536.398949
20
236.964647
11
533.455028
21
237.291259
0
LINE
8
Layer 1
10
533.455028
20
237.291259
11
530.009522
21
237.319851
0
LINE
8
Layer 1
10
530.009522
20
237.319851
11
526.583728
21
237.067388
0
LINE
8
Layer 1
10
526.583728
20
237.067388
11
523.698941
21
236.550839
0
LINE
8
Layer 1
10
523.698941
20
236.550839
11
520.131473
21
235.116355
0
LINE
8
Layer 1
10
520.131473
20
235.116355
11
514.526713
21
232.450500
0
LINE
8
Layer 1
10
514.526713
20
232.450500
11
508.953791
21
229.806649
0
LINE
8
Layer 1
10
508.953791
20
229.806649
11
507.054842
21
229.033553
0
LINE
8
Layer 1
10
507.054842
20
229.033553
11
505.916108
21
228.699764
0
LINE
8
Layer 1
10
505.916108
20
228.699764
11
504.360709
21
228.491978
0
LINE
8
Layer 1
10
504.360709
20
228.491978
11
504.580137
21
230.574426
0
LINE
8
Layer 1
10
504.580137
20
230.574426
11
504.823885
21
232.241837
0
LINE
8
Layer 1
10
504.823885
20
232.241837
11
505.200189
21
233.802720
0
LINE
8
Layer 1
10
505.200189
20
233.802720
11
505.722344
21
235.281417
0
LINE
8
Layer 1
10
505.722344
20
235.281417
11
506.403647
21
236.702269
0
LINE
8
Layer 1
10
506.403647
20
236.702269
11
507.257392
21
238.089618
0
LINE
8
Layer 1
10
507.257392
20
238.089618
11
508.296874
21
239.467806
0
LINE
8
Layer 1
10
508.296874
20
239.467806
11
510.986233
21
242.294064
0
LINE
8
Layer 1
10
510.986233
20
242.294064
11
513.258708
21
244.192457
0
LINE
8
Layer 1
10
513.258708
20
244.192457
11
515.641051
21
245.705384
0
LINE
8
Layer 1
10
515.641051
20
245.705384
11
518.260063
21
246.901538
0
LINE
8
Layer 1
10
518.260063
20
246.901538
11
521.242548
21
247.849612
0
LINE
8
Layer 1
10
521.242548
20
247.849612
11
523.783949
21
248.594079
0
LINE
8
Layer 1
10
523.783949
20
248.594079
11
525.587626
21
249.353990
0
LINE
8
Layer 1
10
525.587626
20
249.353990
11
527.007260
21
250.318623
0
LINE
8
Layer 1
10
527.007260
20
250.318623
11
528.396533
21
251.677254
0
LINE
8
Layer 1
10
528.396533
20
251.677254
11
530.097810
21
253.889172
0
LINE
8
Layer 1
10
530.097810
20
253.889172
11
531.241643
21
256.170411
0
LINE
8
Layer 1
10
531.241643
20
256.170411
11
531.772899
21
258.373333
0
LINE
8
Layer 1
10
531.772899
20
258.373333
11
531.791582
21
259.399288
0
LINE
8
Layer 1
10
531.791582
20
259.399288
11
531.636446
21
260.350301
0
LINE
8
Layer 1
10
531.636446
20
260.350301
11
530.982236
21
261.610347
0
LINE
8
Layer 1
10
530.982236
20
261.610347
11
529.770383
21
263.059371
0
LINE
8
Layer 1
10
529.770383
20
263.059371
11
528.256309
21
264.432857
0
LINE
8
Layer 1
10
528.256309
20
264.432857
11
526.695437
21
265.466287
0
LINE
8
Layer 1
10
526.695437
20
265.466287
11
524.460439
21
266.474521
0
LINE
8
Layer 1
10
524.460439
20
266.474521
11
522.235987
21
267.174411
0
LINE
8
Layer 1
10
522.235987
20
267.174411
11
520.001175
21
267.565292
0
LINE
8
Layer 1
10
520.001175
20
267.565292
11
517.735097
21
267.646499
0
LINE
8
Layer 1
10
517.735097
20
267.646499
11
515.416846
21
267.417367
0
LINE
8
Layer 1
10
515.416846
20
267.417367
11
513.025516
21
266.877228
0
LINE
8
Layer 1
10
513.025516
20
266.877228
11
510.540201
21
266.025419
0
LINE
8
Layer 1
10
510.540201
20
266.025419
11
507.939995
21
264.861273
0
LINE
8
Layer 1
10
507.939995
20
264.861273
11
504.175501
21
262.995783
0
LINE
8
Layer 1
10
504.175501
20
262.995783
11
505.720669
21
265.242626
0
LINE
8
Layer 1
10
505.720669
20
265.242626
11
507.358865
21
268.046908
0
LINE
8
Layer 1
10
507.358865
20
268.046908
11
507.853048
21
269.320910
0
LINE
8
Layer 1
10
507.853048
20
269.320910
11
508.135213
21
270.540602
0
LINE
8
Layer 1
10
508.135213
20
270.540602
11
508.208804
21
271.729321
0
LINE
8
Layer 1
10
508.208804
20
271.729321
11
508.077264
21
272.910405
0
LINE
8
Layer 1
10
508.077264
20
272.910405
11
507.744037
21
274.107190
0
LINE
8
Layer 1
10
507.744037
20
274.107190
11
507.212567
21
275.343013
0
LINE
8
Layer 1
10
507.212567
20
275.343013
11
506.492795
21
276.602315
0
LINE
8
Layer 1
10
506.492795
20
276.602315
11
505.691432
21
277.614330
0
LINE
8
Layer 1
10
505.691432
20
277.614330
11
504.745144
21
278.445833
0
LINE
8
Layer 1
10
504.745144
20
278.445833
11
503.590595
21
279.163599
0
LINE
8
Layer 1
10
503.590595
20
279.163599
11
502.697219
21
279.501835
0
LINE
8
Layer 1
10
502.697219
20
279.501835
11
501.509635
21
279.748720
0
LINE
8
Layer 1
10
501.509635
20
279.748720
11
498.582206
21
279.965243
0
LINE
8
Layer 1
10
498.582206
20
279.965243
11
495.469039
21
279.806785
0
LINE
8
Layer 1
10
495.469039
20
279.806785
11
492.830866
21
279.266963
0
LINE
8
Layer 1
10
492.830866
20
279.266963
11
491.121844
21
278.598090
0
LINE
8
Layer 1
10
491.121844
20
278.598090
11
489.528247
21
277.820441
0
LINE
8
Layer 1
10
489.528247
20
277.820441
11
488.351236
21
277.097097
0
LINE
8
Layer 1
10
488.351236
20
277.097097
11
487.891974
21
276.591142
0
LINE
8
Layer 1
10
487.891974
20
276.591142
11
487.053310
21
275.509045
0
LINE
8
Layer 1
10
487.053310
20
275.509045
11
485.191106
21
273.588251
0
LINE
8
Layer 1
10
485.191106
20
273.588251
11
483.286038
21
271.795450
0
LINE
8
Layer 1
10
483.286038
20
271.795450
11
482.318787
21
271.097330
0
LINE
8
Layer 1
10
482.318787
20
271.097330
11
482.014579
21
271.013126
0
LINE
8
Layer 1
10
482.014579
20
271.013126
11
481.527192
21
270.432961
0
LINE
8
Layer 1
10
481.527192
20
270.432961
11
480.203222
21
268.170507
0
LINE
8
Layer 1
10
480.203222
20
268.170507
11
478.747555
21
265.081495
0
LINE
8
Layer 1
10
478.747555
20
265.081495
11
477.560870
21
261.937449
0
LINE
8
Layer 1
10
477.560870
20
261.937449
11
477.002301
21
259.957086
0
LINE
8
Layer 1
10
477.002301
20
259.957086
11
476.441417
21
257.321349
0
LINE
8
Layer 1
10
476.441417
20
257.321349
11
474.651510
21
246.595487
0
LINE
8
Layer 1
10
474.651510
20
246.595487
11
473.939548
21
242.925281
0
LINE
8
Layer 1
10
473.939548
20
242.925281
11
473.019355
21
239.473941
0
LINE
8
Layer 1
10
473.019355
20
239.473941
11
471.915830
21
236.291656
0
LINE
8
Layer 1
10
471.915830
20
236.291656
11
470.653874
21
233.428621
0
LINE
8
Layer 1
10
470.653874
20
233.428621
11
469.258385
21
230.935027
0
LINE
8
Layer 1
10
469.258385
20
230.935027
11
467.754265
21
228.861066
0
LINE
8
Layer 1
10
467.754265
20
228.861066
11
466.166412
21
227.256932
0
LINE
8
Layer 1
10
466.166412
20
227.256932
11
464.519726
21
226.172815
0
LINE
8
Layer 1
10
464.519726
20
226.172815
11
463.368651
21
225.684467
0
LINE
8
Layer 1
10
463.368651
20
225.684467
11
462.350637
21
225.436728
0
LINE
8
Layer 1
10
462.350637
20
225.436728
11
461.408112
21
225.459302
0
LINE
8
Layer 1
10
461.408112
20
225.459302
11
460.483505
21
225.781893
0
LINE
8
Layer 1
10
460.483505
20
225.781893
11
459.519242
21
226.434205
0
LINE
8
Layer 1
10
459.519242
20
226.434205
11
458.457754
21
227.445942
0
LINE
8
Layer 1
10
458.457754
20
227.445942
11
455.812812
21
230.666502
0
LINE
8
Layer 1
10
455.812812
20
230.666502
11
452.217365
21
235.061829
0
LINE
8
Layer 1
10
452.217365
20
235.061829
11
450.555133
21
236.814893
0
LINE
8
Layer 1
10
450.555133
20
236.814893
11
448.933994
21
238.313758
0
LINE
8
Layer 1
10
448.933994
20
238.313758
11
447.317022
21
239.590076
0
LINE
8
Layer 1
10
447.317022
20
239.590076
11
445.667292
21
240.675497
0
LINE
8
Layer 1
10
445.667292
20
240.675497
11
443.947877
21
241.601671
0
LINE
8
Layer 1
10
443.947877
20
241.601671
11
442.121851
21
242.400251
0
LINE
8
Layer 1
10
442.121851
20
242.400251
11
440.899585
21
242.815746
0
LINE
8
Layer 1
10
440.899585
20
242.815746
11
439.604162
21
243.061445
0
LINE
8
Layer 1
10
439.604162
20
243.061445
11
435.328052
21
243.220459
0
LINE
8
Layer 1
10
435.328052
20
243.220459
11
430.980063
21
243.090284
0
LINE
8
Layer 1
10
430.980063
20
243.090284
11
429.556791
21
242.844519
0
LINE
8
Layer 1
10
429.556791
20
242.844519
11
428.121150
21
242.421417
0
LINE
8
Layer 1
10
428.121150
20
242.421417
11
424.414865
21
240.942395
0
LINE
8
Layer 1
10
424.414865
20
240.942395
11
423.389703
21
240.340799
0
LINE
8
Layer 1
10
423.389703
20
240.340799
11
423.127930
21
239.936449
0
LINE
8
Layer 1
10
423.127930
20
239.936449
11
423.016783
21
239.615806
0
LINE
8
Layer 1
10
423.016783
20
239.615806
11
422.563993
21
239.025477
0
LINE
8
Layer 1
10
422.563993
20
239.025477
11
421.047687
21
237.436576
0
LINE
8
Layer 1
10
421.047687
20
237.436576
11
419.407423
21
235.971368
0
LINE
8
Layer 1
10
419.407423
20
235.971368
11
418.799686
21
235.535655
0
LINE
8
Layer 1
10
418.799686
20
235.535655
11
418.471614
21
235.431474
0
LINE
8
Layer 1
10
418.471614
20
235.431474
11
418.196811
21
235.401388
0
LINE
8
Layer 1
10
418.196811
20
235.401388
11
417.887022
21
235.044802
0
LINE
8
Layer 1
10
417.887022
20
235.044802
11
417.249811
21
233.609949
0
LINE
8
Layer 1
10
417.249811
20
233.609949
11
416.734639
21
231.642556
0
LINE
8
Layer 1
10
416.734639
20
231.642556
11
416.516165
21
229.658262
0
LINE
8
Layer 1
10
416.516165
20
229.658262
11
416.628541
21
227.863300
0
LINE
8
Layer 1
10
416.628541
20
227.863300
11
417.035234
21
226.428800
0
LINE
8
Layer 1
10
417.035234
20
226.428800
11
417.801694
21
225.206562
0
LINE
8
Layer 1
10
417.801694
20
225.206562
11
418.993372
21
224.048386
0
LINE
8
Layer 1
10
418.993372
20
224.048386
11
420.353050
21
223.127035
0
LINE
8
Layer 1
10
420.353050
20
223.127035
11
422.131729
21
222.401310
0
LINE
8
Layer 1
10
422.131729
20
222.401310
11
424.749204
21
221.738622
0
LINE
8
Layer 1
10
424.749204
20
221.738622
11
428.625270
21
221.006382
0
LINE
8
Layer 1
10
428.625270
20
221.006382
11
432.501097
21
220.258877
0
LINE
8
Layer 1
10
432.501097
20
220.258877
11
435.917004
21
219.437479
0
LINE
8
Layer 1
10
435.917004
20
219.437479
11
438.945279
21
218.510098
0
LINE
8
Layer 1
10
438.945279
20
218.510098
11
441.658212
21
217.444647
0
LINE
8
Layer 1
10
441.658212
20
217.444647
11
444.128092
21
216.209035
0
LINE
8
Layer 1
10
444.128092
20
216.209035
11
446.427209
21
214.771174
0
LINE
8
Layer 1
10
446.427209
20
214.771174
11
448.627850
21
213.098974
0
LINE
8
Layer 1
10
448.627850
20
213.098974
11
450.802306
21
211.160348
0
LINE
8
Layer 1
10
450.802306
20
211.160348
11
453.293288
21
208.546213
0
LINE
8
Layer 1
10
453.293288
20
208.546213
11
455.333519
21
205.772237
0
LINE
8
Layer 1
10
455.333519
20
205.772237
11
457.186888
21
202.423387
0
LINE
8
Layer 1
10
457.186888
20
202.423387
11
459.117284
21
198.084631
0
LINE
8
Layer 1
10
459.117284
20
198.084631
11
460.636743
21
194.838544
0
LINE
8
Layer 1
10
460.636743
20
194.838544
11
462.240075
21
191.988274
0
LINE
8
Layer 1
10
462.240075
20
191.988274
11
463.414605
21
189.967827
0
LINE
8
Layer 1
10
463.414605
20
189.967827
11
463.903070
21
188.717317
0
LINE
8
Layer 1
10
463.903070
20
188.717317
11
463.488997
21
187.397574
0
LINE
8
Layer 1
10
463.488997
20
187.397574
11
462.493369
21
185.211056
0
LINE
8
Layer 1
10
462.493369
20
185.211056
11
459.799722
21
179.177863
0
LINE
8
Layer 1
10
459.799722
20
179.177863
11
457.510292
21
172.617190
0
LINE
8
Layer 1
10
457.510292
20
172.617190
11
455.648561
21
165.605865
0
LINE
8
Layer 1
10
455.648561
20
165.605865
11
454.238011
21
158.220717
0
LINE
8
Layer 1
10
454.238011
20
158.220717
11
453.311572
21
151.511943
0
LINE
8
Layer 1
10
453.311572
20
151.511943
11
452.776981
21
144.839451
0
LINE
8
Layer 1
10
452.776981
20
144.839451
11
452.527876
21
136.113724
0
LINE
8
Layer 1
10
452.527876
20
136.113724
11
452.457893
21
123.245248
0
LINE
8
Layer 1
10
452.457893
20
123.245248
11
452.437785
21
103.086807
0
LINE
8
Layer 1
10
452.437785
20
103.086807
11
451.244337
21
104.817536
0
LINE
8
Layer 1
10
451.244337
20
104.817536
11
450.141134
21
106.229846
0
LINE
8
Layer 1
10
450.141134
20
106.229846
11
448.660437
21
107.841560
0
LINE
8
Layer 1
10
448.660437
20
107.841560
11
444.840270
21
111.424980
0
LINE
8
Layer 1
10
444.840270
20
111.424980
11
440.331260
21
115.091347
0
LINE
8
Layer 1
10
440.331260
20
115.091347
11
435.680830
21
118.364211
0
LINE
8
Layer 1
10
435.680830
20
118.364211
11
430.510449
21
121.340533
0
LINE
8
Layer 1
10
430.510449
20
121.340533
11
424.530576
21
124.224119
0
LINE
8
Layer 1
10
424.530576
20
124.224119
11
418.349089
21
126.744828
0
LINE
8
Layer 1
10
418.349089
20
126.744828
11
412.573871
21
128.632521
0
LINE
8
Layer 1
10
412.573871
20
128.632521
11
408.922971
21
129.689796
0
LINE
8
Layer 1
10
408.922971
20
129.689796
11
410.821623
21
134.627983
0
LINE
8
Layer 1
10
410.821623
20
134.627983
11
412.524573
21
138.910457
0
LINE
8
Layer 1
10
412.524573
20
138.910457
11
414.076198
21
143.221726
0
LINE
8
Layer 1
10
414.076198
20
143.221726
11
415.479822
21
147.574246
0
LINE
8
Layer 1
10
415.479822
20
147.574246
11
416.738768
21
151.980471
0
LINE
8
Layer 1
10
416.738768
20
151.980471
11
417.856361
21
156.452859
0
LINE
8
Layer 1
10
417.856361
20
156.452859
11
418.835923
21
161.003865
0
LINE
8
Layer 1
10
418.835923
20
161.003865
11
420.394254
21
170.391558
0
LINE
8
Layer 1
10
420.394254
20
170.391558
11
420.870449
21
177.219394
0
LINE
8
Layer 1
10
420.870449
20
177.219394
11
421.067178
21
186.825853
0
LINE
8
Layer 1
10
421.067178
20
186.825853
11
420.970219
21
196.461351
0
LINE
8
Layer 1
10
420.970219
20
196.461351
11
420.565351
21
203.376301
0
LINE
8
Layer 1
10
420.565351
20
203.376301
11
419.419833
21
211.090212
0
LINE
8
Layer 1
10
419.419833
20
211.090212
11
417.880143
21
218.647942
0
LINE
8
Layer 1
10
417.880143
20
218.647942
11
415.951540
21
226.041105
0
LINE
8
Layer 1
10
415.951540
20
226.041105
11
413.639283
21
233.261316
0
LINE
8
Layer 1
10
413.639283
20
233.261316
11
410.948630
21
240.300188
0
LINE
8
Layer 1
10
410.948630
20
240.300188
11
407.884840
21
247.149334
0
LINE
8
Layer 1
10
407.884840
20
247.149334
11
404.453171
21
253.800370
0
LINE
8
Layer 1
10
404.453171
20
253.800370
11
400.658882
21
260.244908
0
LINE
8
Layer 1
10
400.658882
20
260.244908
11
396.507232
21
266.474564
0
LINE
8
Layer 1
10
396.507232
20
266.474564
11
392.003480
21
272.480950
0
LINE
8
Layer 1
10
392.003480
20
272.480950
11
387.152883
21
278.255681
0
LINE
8
Layer 1
10
387.152883
20
278.255681
11
381.960700
21
283.790370
0
LINE
8
Layer 1
10
381.960700
20
283.790370
11
376.432191
21
289.076633
0
LINE
8
Layer 1
10
376.432191
20
289.076633
11
370.572613
21
294.106081
0
LINE
8
Layer 1
10
370.572613
20
294.106081
11
364.387225
21
298.870331
0
LINE
8
Layer 1
10
364.387225
20
298.870331
11
357.881287
21
303.360995
0
LINE
8
Layer 1
10
357.881287
20
303.360995
11
351.766693
21
307.086403
0
LINE
8
Layer 1
10
351.766693
20
307.086403
11
345.328696
21
310.495544
0
LINE
8
Layer 1
10
345.328696
20
310.495544
11
338.597937
21
313.577345
0
LINE
8
Layer 1
10
338.597937
20
313.577345
11
331.605058
21
316.320735
0
LINE
8
Layer 1
10
331.605058
20
316.320735
11
324.380702
21
318.714644
0
LINE
8
Layer 1
10
324.380702
20
318.714644
11
316.955511
21
320.748000
0
LINE
8
Layer 1
10
316.955511
20
320.748000
11
309.360126
21
322.409732
0
LINE
8
Layer 1
10
309.360126
20
322.409732
11
301.625190
21
323.688768
0
LINE
8
Layer 1
10
301.625190
20
323.688768
11
296.143284
21
324.067850
0
LINE
8
Layer 1
10
296.143284
20
324.067850
11
287.557285
21
324.352873
0
LINE
8
Layer 1
10
287.557285
20
324.352873
11
278.993776
21
324.470414
0
LINE
8
Layer 1
10
278.993776
20
324.470414
11
273.579339
21
324.347052
0
LINE
8
Layer 1
10
334.433544
20
120.067776
11
330.858139
21
119.236279
0
LINE
8
Layer 1
10
330.858139
20
119.236279
11
327.881839
21
118.655297
0
LINE
8
Layer 1
10
327.881839
20
118.655297
11
324.508135
21
118.183589
0
LINE
8
Layer 1
10
324.508135
20
118.183589
11
320.027518
21
117.609288
0
LINE
8
Layer 1
10
320.027518
20
117.609288
11
315.999438
21
116.908385
0
LINE
8
Layer 1
10
315.999438
20
116.908385
11
312.543586
21
116.104955
0
LINE
8
Layer 1
10
312.543586
20
116.104955
11
309.779653
21
115.223076
0
LINE
8
Layer 1
10
309.779653
20
115.223076
11
304.109805
21
113.263747
0
LINE
8
Layer 1
10
304.109805
20
113.263747
11
300.174892
21
111.810654
0
LINE
8
Layer 1
10
300.174892
20
111.810654
11
296.473705
21
109.872845
0
LINE
8
Layer 1
10
296.473705
20
109.872845
11
292.910829
21
107.392375
0
LINE
8
Layer 1
10
292.910829
20
107.392375
11
289.390849
21
104.311300
0
LINE
8
Layer 1
10
289.390849
20
104.311300
11
286.929820
21
101.774319
0
LINE
8
Layer 1
10
286.929820
20
101.774319
11
284.774617
21
99.105443
0
LINE
8
Layer 1
10
284.774617
20
99.105443
11
282.571590
21
95.821543
0
LINE
8
Layer 1
10
282.571590
20
95.821543
11
279.967090
21
91.439489
0
LINE
8
Layer 1
10
279.967090
20
91.439489
11
275.997081
21
84.804512
0
LINE
8
Layer 1
10
275.997081
20
84.804512
11
272.692102
21
80.010143
0
LINE
8
Layer 1
10
272.692102
20
80.010143
11
271.160635
21
78.135848
0
LINE
8
Layer 1
10
271.160635
20
78.135848
11
269.641388
21
76.520899
0
LINE
8
Layer 1
10
269.641388
20
76.520899
11
268.083016
21
75.098359
0
LINE
8
Layer 1
10
268.083016
20
75.098359
11
266.434173
21
73.801294
0
LINE
8
Layer 1
10
266.434173
20
73.801294
11
264.954049
21
72.586459
0
LINE
8
Layer 1
10
264.954049
20
72.586459
11
264.493894
21
71.940743
0
LINE
8
Layer 1
10
264.493894
20
71.940743
11
266.700168
21
71.039748
0
LINE
8
Layer 1
10
266.700168
20
71.039748
11
268.119504
21
70.683823
0
LINE
8
Layer 1
10
268.119504
20
70.683823
11
270.413421
21
70.486284
0
LINE
8
Layer 1
10
270.413421
20
70.486284
11
281.693233
21
70.390284
0
LINE
8
Layer 1
10
281.693233
20
70.390284
11
292.287024
21
70.513668
0
LINE
8
Layer 1
10
292.287024
20
70.513668
11
298.097410
21
70.854540
0
LINE
8
Layer 1
10
298.097410
20
70.854540
11
302.239162
21
71.338871
0
LINE
8
Layer 1
10
302.239162
20
71.338871
11
305.471043
21
71.545720
0
LINE
8
Layer 1
10
305.471043
20
71.545720
11
307.860293
21
71.476741
0
LINE
8
Layer 1
10
307.860293
20
71.476741
11
309.474148
21
71.133587
0
LINE
8
Layer 1
10
309.474148
20
71.133587
11
311.350491
21
70.243287
0
LINE
8
Layer 1
10
311.350491
20
70.243287
11
313.235461
21
69.021208
0
LINE
8
Layer 1
10
313.235461
20
69.021208
11
315.107724
21
67.490310
0
LINE
8
Layer 1
10
315.107724
20
67.490310
11
316.945942
21
65.673554
0
LINE
8
Layer 1
10
316.945942
20
65.673554
11
318.728779
21
63.593901
0
LINE
8
Layer 1
10
318.728779
20
63.593901
11
320.434900
21
61.274313
0
LINE
8
Layer 1
10
320.434900
20
61.274313
11
322.042967
21
58.737750
0
LINE
8
Layer 1
10
322.042967
20
58.737750
11
323.531645
21
56.007172
0
LINE
8
Layer 1
10
323.531645
20
56.007172
11
324.945832
21
53.395565
0
LINE
8
Layer 1
10
324.945832
20
53.395565
11
326.624130
21
50.623675
0
LINE
8
Layer 1
10
326.624130
20
50.623675
11
330.556073
21
44.893474
0
LINE
8
Layer 1
10
330.556073
20
44.893474
11
334.893489
21
39.405434
0
LINE
8
Layer 1
10
334.893489
20
39.405434
11
339.202397
21
34.748417
0
LINE
8
Layer 1
10
339.202397
20
34.748417
11
342.123960
21
32.092602
0
LINE
8
Layer 1
10
342.123960
20
32.092602
11
345.230458
21
29.622641
0
LINE
8
Layer 1
10
345.230458
20
29.622641
11
348.456300
21
27.375393
0
LINE
8
Layer 1
10
348.456300
20
27.375393
11
351.735894
21
25.387717
0
LINE
8
Layer 1
10
351.735894
20
25.387717
11
355.003647
21
23.696475
0
LINE
8
Layer 1
10
355.003647
20
23.696475
11
358.193969
21
22.338525
0
LINE
8
Layer 1
10
358.193969
20
22.338525
11
361.241267
21
21.350727
0
LINE
8
Layer 1
10
361.241267
20
21.350727
11
364.079949
21
20.769942
0
LINE
8
Layer 1
10
364.079949
20
20.769942
11
366.095075
21
20.602103
0
LINE
8
Layer 1
10
366.095075
20
20.602103
11
368.216381
21
20.621698
0
LINE
8
Layer 1
10
368.216381
20
20.621698
11
370.420800
21
20.824003
0
LINE
8
Layer 1
10
370.420800
20
20.824003
11
372.685263
21
21.204299
0
LINE
8
Layer 1
10
372.685263
20
21.204299
11
374.986701
21
21.757865
0
LINE
8
Layer 1
10
374.986701
20
21.757865
11
377.302046
21
22.479978
0
LINE
8
Layer 1
10
377.302046
20
22.479978
11
379.608230
21
23.365918
0
LINE
8
Layer 1
10
379.608230
20
23.365918
11
381.882185
21
24.410963
0
LINE
8
Layer 1
10
381.882185
20
24.410963
11
383.882064
21
25.491488
0
LINE
8
Layer 1
10
383.882064
20
25.491488
11
385.656463
21
26.632924
0
LINE
8
Layer 1
10
385.656463
20
26.632924
11
387.227853
21
27.859276
0
LINE
8
Layer 1
10
387.227853
20
27.859276
11
388.618701
21
29.194545
0
LINE
8
Layer 1
10
388.618701
20
29.194545
11
389.851478
21
30.662734
0
LINE
8
Layer 1
10
389.851478
20
30.662734
11
390.948651
21
32.287846
0
LINE
8
Layer 1
10
390.948651
20
32.287846
11
391.932690
21
34.093883
0
LINE
8
Layer 1
10
391.932690
20
34.093883
11
392.826064
21
36.104848
0
LINE
8
Layer 1
10
392.826064
20
36.104848
11
394.117857
21
39.975529
0
LINE
8
Layer 1
10
394.117857
20
39.975529
11
394.985308
21
44.096439
0
LINE
8
Layer 1
10
394.985308
20
44.096439
11
395.430186
21
48.424352
0
LINE
8
Layer 1
10
395.430186
20
48.424352
11
395.454260
21
52.916043
0
LINE
8
Layer 1
10
395.454260
20
52.916043
11
395.059300
21
57.528285
0
LINE
8
Layer 1
10
395.059300
20
57.528285
11
394.247076
21
62.217851
0
LINE
8
Layer 1
10
394.247076
20
62.217851
11
393.019356
21
66.941515
0
LINE
8
Layer 1
10
393.019356
20
66.941515
11
391.377910
21
71.656051
0
LINE
8
Layer 1
10
391.377910
20
71.656051
11
389.148828
21
76.707033
0
LINE
8
Layer 1
10
389.148828
20
76.707033
11
386.318016
21
82.359380
0
LINE
8
Layer 1
10
386.318016
20
82.359380
11
383.586952
21
87.279690
0
LINE
8
Layer 1
10
383.586952
20
87.279690
11
382.478037
21
89.048644
0
LINE
8
Layer 1
10
382.478037
20
89.048644
11
381.657113
21
90.134563
0
LINE
8
Layer 1
10
381.657113
20
90.134563
11
379.017980
21
93.662343
0
LINE
8
Layer 1
10
379.017980
20
93.662343
11
374.347200
21
99.749880
0
LINE
8
Layer 1
10
374.347200
20
99.749880
11
370.416900
21
104.545897
0
LINE
8
Layer 1
10
370.416900
20
104.545897
11
368.535281
21
106.574552
0
LINE
8
Layer 1
10
368.535281
20
106.574552
11
365.851776
21
109.115475
0
LINE
8
Layer 1
10
365.851776
20
109.115475
11
362.937290
21
111.650907
0
LINE
8
Layer 1
10
362.937290
20
111.650907
11
360.362727
21
113.663092
0
LINE
8
Layer 1
10
360.362727
20
113.663092
11
357.765344
21
115.355654
0
LINE
8
Layer 1
10
357.765344
20
115.355654
11
355.012849
21
116.852558
0
LINE
8
Layer 1
10
355.012849
20
116.852558
11
352.182037
21
118.115834
0
LINE
8
Layer 1
10
352.182037
20
118.115834
11
349.349703
21
119.107515
0
LINE
8
Layer 1
10
349.349703
20
119.107515
11
347.548187
21
119.594337
0
LINE
8
Layer 1
10
347.548187
20
119.594337
11
345.831272
21
119.891123
0
LINE
8
Layer 1
10
345.831272
20
119.891123
11
340.783548
21
120.139743
0
LINE
8
Layer 1
10
340.783548
20
120.139743
11
334.433544
21
120.067776
0
LINE
8
Layer 1
10
191.104429
20
288.645213
11
188.201132
21
285.887586
0
LINE
8
Layer 1
10
188.201132
20
285.887586
11
185.120696
21
282.737813
0
LINE
8
Layer 1
10
185.120696
20
282.737813
11
182.676187
21
280.054303
0
LINE
8
Layer 1
10
182.676187
20
280.054303
11
181.680670
21
278.695462
0
LINE
8
Layer 1
10
181.680670
20
278.695462
11
181.759428
21
278.445519
0
LINE
8
Layer 1
10
181.759428
20
278.445519
11
181.948781
21
278.341626
0
LINE
8
Layer 1
10
181.948781
20
278.341626
11
183.988323
21
280.193622
0
LINE
8
Layer 1
10
183.988323
20
280.193622
11
188.514685
21
284.646474
0
LINE
8
Layer 1
10
188.514685
20
284.646474
11
192.409503
21
288.684404
0
LINE
8
Layer 1
10
192.409503
20
288.684404
11
194.263953
21
290.889234
0
LINE
8
Layer 1
10
194.263953
20
290.889234
11
194.367655
21
291.214050
0
LINE
8
Layer 1
10
194.367655
20
291.214050
11
193.891204
21
290.972368
0
LINE
8
Layer 1
10
193.891204
20
290.972368
11
191.104429
21
288.645213
0
LINE
8
Layer 1
10
484.902533
20
274.397921
11
483.015524
21
272.360363
0
LINE
8
Layer 1
10
483.015524
20
272.360363
11
482.312790
21
271.266310
0
LINE
8
Layer 1
10
482.312790
20
271.266310
11
482.583288
21
271.317904
0
LINE
8
Layer 1
10
482.583288
20
271.317904
11
483.215505
21
271.770871
0
LINE
8
Layer 1
10
483.215505
20
271.770871
11
485.187931
21
273.577712
0
LINE
8
Layer 1
10
485.187931
20
273.577712
11
487.076351
21
275.625324
0
LINE
8
Layer 1
10
487.076351
20
275.625324
11
487.777321
21
276.709322
0
LINE
8
Layer 1
10
487.777321
20
276.709322
11
487.505836
21
276.649940
0
LINE
8
Layer 1
10
487.505836
20
276.649940
11
486.873328
21
276.194310
0
LINE
8
Layer 1
10
486.873328
20
276.194310
11
484.902533
21
274.397921
0
LINE
8
Layer 1
10
420.866271
20
238.621998
11
418.861698
21
236.474771
0
LINE
8
Layer 1
10
418.861698
20
236.474771
11
418.492659
21
235.792625
0
LINE
8
Layer 1
10
418.492659
20
235.792625
11
418.552047
21
235.380321
0
LINE
8
Layer 1
10
418.552047
20
235.380321
11
419.373446
21
235.892599
0
LINE
8
Layer 1
10
419.373446
20
235.892599
11
421.046540
21
237.425375
0
LINE
8
Layer 1
10
421.046540
20
237.425375
11
422.558299
21
239.117001
0
LINE
8
Layer 1
10
422.558299
20
239.117001
11
423.013410
21
240.004888
0
LINE
8
Layer 1
10
423.013410
20
240.004888
11
422.853518
21
240.089035
0
LINE
8
Layer 1
10
422.853518
20
240.089035
11
422.440019
21
239.902174
0
LINE
8
Layer 1
10
422.440019
20
239.902174
11
420.866271
21
238.621998
0
LINE
8
Layer 1
10
20.110463
20
260.847012
11
18.105890
21
258.699785
0
LINE
8
Layer 1
10
18.105890
20
258.699785
11
17.736851
21
258.017639
0
LINE
8
Layer 1
10
17.736851
20
258.017639
11
17.796239
21
257.605335
0
LINE
8
Layer 1
10
17.796239
20
257.605335
11
18.617638
21
258.117613
0
LINE
8
Layer 1
10
18.617638
20
258.117613
11
20.290732
21
259.650389
0
LINE
8
Layer 1
10
20.290732
20
259.650389
11
21.802491
21
261.342015
0
LINE
8
Layer 1
10
21.802491
20
261.342015
11
22.257602
21
262.229902
0
LINE
8
Layer 1
10
22.257602
20
262.229902
11
22.097710
21
262.314049
0
LINE
8
Layer 1
10
22.097710
20
262.314049
11
21.684211
21
262.127188
0
LINE
8
Layer 1
10
21.684211
20
262.127188
11
20.110463
21
260.847012
 0 
ENDSEC
 0 
EOF